<?xml version="1.0" encoding="utf-8"?>
<!-- Generator: Adobe Illustrator 26.0.2, SVG Export Plug-In . SVG Version: 6.00 Build 0)  -->
<svg version="1.1" id="Calque_1" xmlns="http://www.w3.org/2000/svg" xmlns:xlink="http://www.w3.org/1999/xlink" x="0px" y="0px"
	 viewBox="0 0 841 605.3" style="enable-background:new 0 0 841 605.3;" xml:space="preserve">
<style type="text/css">
	.st0{fill:#1D1D1B;}
	.st1{fill:#A8BA00;}
</style>
<g>
	<path class="st0" d="M-146.1,851.5h25.7c5.6,0,9.8,1.3,12.6,4s4.2,6.5,4.2,11.4c0,5.1-1.5,9-4.6,11.9s-7.7,4.3-13.9,4.3h-8.5v18.5
		h-15.5V851.5z M-130.6,872.9h3.8c3,0,5.1-0.5,6.3-1.6c1.2-1.1,1.8-2.4,1.8-4s-0.5-2.9-1.6-4s-3-1.6-5.9-1.6h-4.4
		C-130.6,861.7-130.6,872.9-130.6,872.9z"/>
	<path class="st0" d="M-96.3,865.3h13v6c1.2-2.6,2.6-4.3,3.9-5.3s3-1.5,4.9-1.5c2.1,0,4.3,0.6,6.7,1.9l-4.3,9.9
		c-1.6-0.7-2.9-1-3.9-1c-1.8,0-3.2,0.8-4.2,2.3c-1.4,2.1-2.2,6.1-2.2,11.9v12.1h-14L-96.3,865.3L-96.3,865.3z"/>
	<path class="st0" d="M-66,883.6c0-5.5,1.9-10.1,5.6-13.7c3.7-3.6,8.8-5.4,15.1-5.4c7.3,0,12.8,2.1,16.5,6.3c3,3.4,4.5,7.6,4.5,12.5
		c0,5.6-1.9,10.2-5.6,13.7c-3.7,3.6-8.8,5.3-15.4,5.3c-5.8,0-10.6-1.5-14.2-4.4C-63.7,894.3-66,889.5-66,883.6z M-52,883.5
		c0,3.2,0.7,5.6,2,7.2c1.3,1.5,3,2.3,4.9,2.3c2,0,3.7-0.8,4.9-2.3c1.3-1.5,1.9-4,1.9-7.3c0-3.1-0.7-5.5-1.9-7
		c-1.3-1.5-2.9-2.3-4.8-2.3c-2,0-3.7,0.8-5,2.3C-51.4,878-52,880.4-52,883.5z"/>
	<path class="st0" d="M-2.1,865.3h6.6v10.2h-6.6v26.1H-16v-26.1h-5.2v-10.2h5.2v-1.6c0-1.5,0.2-3.1,0.5-4.9c0.3-1.8,0.9-3.2,1.8-4.4
		c0.9-1.1,2.1-2,3.7-2.7s3.9-1,7-1c2.4,0,6,0.3,10.6,0.8l-1.5,8.4c-1.7-0.3-3-0.4-4-0.4c-1.2,0-2.1,0.2-2.7,0.6s-0.9,1.1-1.2,2
		C-2,862.7-2.1,863.7-2.1,865.3z"/>
	<path class="st0" d="M48.8,886.9H20.9c0.2,2.2,0.9,3.9,1.8,5c1.3,1.6,3.1,2.4,5.3,2.4c1.4,0,2.7-0.3,3.9-1c0.8-0.4,1.6-1.2,2.4-2.3
		l13.7,1.3c-2.1,3.7-4.6,6.3-7.6,7.8c-3,1.6-7.2,2.4-12.8,2.4c-4.8,0-8.6-0.7-11.4-2c-2.8-1.4-5-3.5-6.9-6.5
		c-1.8-3-2.7-6.4-2.7-10.4c0-5.7,1.8-10.3,5.4-13.8s8.6-5.3,15.1-5.3c5.2,0,9.3,0.8,12.3,2.4s5.3,3.8,6.9,6.8
		c1.6,3,2.4,6.9,2.4,11.7L48.8,886.9L48.8,886.9z M34.6,880.3c-0.3-2.7-1-4.6-2.2-5.8s-2.7-1.7-4.6-1.7c-2.2,0-4,0.9-5.3,2.6
		c-0.8,1.1-1.4,2.7-1.6,4.9H34.6z"/>
	<path class="st0" d="M52.7,891.5l13.8-1.3c0.6,1.6,1.4,2.8,2.4,3.5s2.4,1.1,4.1,1.1c1.9,0,3.3-0.4,4.3-1.2c0.8-0.6,1.2-1.3,1.2-2.2
		c0-1-0.5-1.8-1.6-2.3c-0.8-0.4-2.8-0.9-6-1.4c-4.8-0.8-8.2-1.6-10.1-2.3c-1.9-0.7-3.5-1.9-4.8-3.6s-1.9-3.7-1.9-5.8
		c0-2.4,0.7-4.5,2.1-6.2s3.3-3,5.7-3.9c2.4-0.8,5.7-1.3,9.8-1.3c4.3,0,7.5,0.3,9.6,1s3.8,1.7,5.2,3.1s2.5,3.3,3.4,5.6l-13.2,1.3
		c-0.3-1.2-0.9-2-1.7-2.6c-1.1-0.7-2.4-1.1-4-1.1s-2.7,0.3-3.4,0.8s-1.1,1.2-1.1,2c0,0.9,0.5,1.6,1.4,2c0.9,0.5,2.9,0.9,5.9,1.2
		c4.6,0.5,8.1,1.2,10.3,2.2c2.3,0.9,4,2.3,5.2,4s1.8,3.6,1.8,5.7c0,2.1-0.6,4.1-1.9,6.1s-3.3,3.6-6,4.7s-6.4,1.8-11.1,1.8
		c-6.6,0-11.4-1-14.2-2.8C55.3,897.7,53.5,895,52.7,891.5z"/>
	<path class="st0" d="M95.5,891.5l13.8-1.3c0.6,1.6,1.4,2.8,2.4,3.5s2.4,1.1,4.1,1.1c1.9,0,3.3-0.4,4.3-1.2c0.8-0.6,1.2-1.3,1.2-2.2
		c0-1-0.5-1.8-1.6-2.3c-0.8-0.4-2.8-0.9-6-1.4c-4.8-0.8-8.2-1.6-10.1-2.3s-3.5-1.9-4.8-3.6s-1.9-3.7-1.9-5.8c0-2.4,0.7-4.5,2.1-6.2
		s3.3-3,5.7-3.9c2.4-0.8,5.7-1.3,9.8-1.3c4.3,0,7.5,0.3,9.6,1s3.8,1.7,5.2,3.1c1.4,1.4,2.5,3.3,3.4,5.6l-13.2,1.3
		c-0.3-1.2-0.9-2-1.7-2.6c-1.1-0.7-2.4-1.1-4-1.1s-2.7,0.3-3.4,0.8s-1.1,1.2-1.1,2c0,0.9,0.5,1.6,1.4,2c0.9,0.5,2.9,0.9,6,1.2
		c4.6,0.5,8.1,1.2,10.3,2.2c2.3,0.9,4,2.3,5.2,4s1.8,3.6,1.8,5.7c0,2.1-0.6,4.1-1.9,6.1s-3.3,3.6-6,4.7s-6.4,1.8-11.1,1.8
		c-6.6,0-11.4-1-14.2-2.8C98.1,897.7,96.3,895,95.5,891.5z"/>
	<path class="st0" d="M141.2,851.5h13.9v9.5h-13.9V851.5z M141.2,865.3h13.9v36.3h-13.9V865.3z"/>
	<path class="st0" d="M162.3,883.6c0-5.5,1.9-10.1,5.6-13.7s8.8-5.4,15.1-5.4c7.3,0,12.8,2.1,16.5,6.3c3,3.4,4.5,7.6,4.5,12.5
		c0,5.6-1.9,10.2-5.5,13.7c-3.7,3.6-8.8,5.3-15.4,5.3c-5.8,0-10.5-1.5-14.1-4.4C164.5,894.3,162.3,889.5,162.3,883.6z M176.2,883.5
		c0,3.2,0.6,5.6,2,7.2c1.3,1.5,3,2.3,4.9,2.3c2,0,3.6-0.8,4.9-2.3s1.9-4,1.9-7.3c0-3.1-0.6-5.5-2-7c-1.3-1.5-2.9-2.3-4.8-2.3
		c-2,0-3.7,0.8-5,2.3C176.9,878,176.2,880.4,176.2,883.5z"/>
	<path class="st0" d="M210.7,865.3h13v5.9c1.9-2.4,3.9-4.1,5.9-5.2s4.4-1.5,7.2-1.5c3.9,0,6.9,1.1,9,3.4c2.2,2.3,3.3,5.8,3.3,10.6
		v23.1h-14v-20c0-2.3-0.4-3.9-1.3-4.8s-2-1.4-3.5-1.4c-1.7,0-3,0.6-4.1,1.9c-1,1.3-1.6,3.6-1.6,6.9v17.4h-13.9L210.7,865.3
		L210.7,865.3z"/>
	<path class="st0" d="M257.4,865.3h13v5.9c1.9-2.4,3.9-4.1,5.9-5.2s4.4-1.5,7.2-1.5c3.9,0,6.9,1.1,9,3.4c2.2,2.3,3.3,5.8,3.3,10.6
		v23.1h-14v-20c0-2.3-0.4-3.9-1.3-4.8s-2-1.4-3.5-1.4c-1.7,0-3,0.6-4.1,1.9c-1,1.3-1.6,3.6-1.6,6.9v17.4h-13.9V865.3L257.4,865.3z"
		/>
	<path class="st0" d="M344.4,886.9h-27.9c0.2,2.2,0.9,3.9,1.8,5c1.3,1.6,3.1,2.4,5.3,2.4c1.4,0,2.7-0.3,3.9-1
		c0.8-0.4,1.6-1.2,2.4-2.3l13.7,1.3c-2.1,3.7-4.6,6.3-7.6,7.8s-7.2,2.4-12.8,2.4c-4.8,0-8.6-0.7-11.4-2c-2.8-1.4-5-3.5-6.9-6.5
		s-2.7-6.4-2.7-10.4c0-5.7,1.8-10.3,5.5-13.8s8.6-5.3,15.1-5.3c5.2,0,9.3,0.8,12.3,2.4s5.3,3.8,6.9,6.8s2.4,6.9,2.4,11.7
		L344.4,886.9L344.4,886.9z M330.2,880.3c-0.3-2.7-1-4.6-2.2-5.8s-2.7-1.7-4.6-1.7c-2.2,0-4,0.9-5.3,2.6c-0.8,1.1-1.4,2.7-1.6,4.9
		H330.2z"/>
	<path class="st0" d="M351.2,851.5h14v50.1h-14V851.5z"/>
	<path class="st0" d="M435.6,851.5v50.1h-13v-5.4c-1.8,2.3-3.5,3.8-5,4.6c-2,1-4.2,1.6-6.7,1.6c-5,0-8.7-1.9-11.3-5.6
		c-2.6-3.8-3.9-8.3-3.9-13.7c0-6,1.4-10.6,4.3-13.8s6.5-4.8,11-4.8c2.2,0,4.1,0.4,5.9,1.1c1.8,0.7,3.3,1.8,4.7,3.3v-17.4
		L435.6,851.5L435.6,851.5z M421.7,883.4c0-2.8-0.6-5-1.8-6.4s-2.7-2.1-4.6-2.1c-1.6,0-3,0.7-4.1,2s-1.6,3.6-1.6,6.8
		c0,3,0.6,5.1,1.7,6.5s2.5,2.1,4.2,2.1c1.8,0,3.3-0.7,4.4-2.1C421.1,888.8,421.7,886.5,421.7,883.4z"/>
	<path class="st0" d="M484.4,886.9h-27.9c0.2,2.2,0.8,3.9,1.8,5c1.3,1.6,3.1,2.4,5.3,2.4c1.4,0,2.7-0.3,3.9-1
		c0.8-0.4,1.6-1.2,2.4-2.3l13.7,1.3c-2.1,3.7-4.6,6.3-7.6,7.8s-7.2,2.4-12.8,2.4c-4.8,0-8.6-0.7-11.3-2c-2.8-1.4-5-3.5-6.8-6.5
		s-2.7-6.4-2.7-10.4c0-5.7,1.8-10.3,5.5-13.8s8.7-5.3,15.1-5.3c5.2,0,9.3,0.8,12.3,2.4s5.3,3.8,6.9,6.8s2.4,6.9,2.4,11.7
		L484.4,886.9L484.4,886.9z M470.3,880.3c-0.3-2.7-1-4.6-2.2-5.8s-2.7-1.7-4.6-1.7c-2.2,0-4,0.9-5.3,2.6c-0.8,1.1-1.4,2.7-1.6,4.9
		H470.3z"/>
	<path class="st1" d="M514.2,865.3h13v5.3c1.9-2.2,3.8-3.8,5.7-4.7s4.2-1.4,6.9-1.4c2.9,0,5.2,0.5,6.9,1.5s3.1,2.5,4.1,4.6
		c2.2-2.4,4.2-4,6-4.8s4-1.3,6.7-1.3c3.9,0,6.9,1.2,9.1,3.5s3.3,5.9,3.3,10.8v22.8h-14v-20.7c0-1.6-0.3-2.9-1-3.7
		c-0.9-1.2-2.1-1.9-3.5-1.9c-1.6,0-3,0.6-4,1.8s-1.5,3.1-1.5,5.7v18.8h-14v-20c0-1.6-0.1-2.7-0.3-3.2c-0.3-0.9-0.8-1.7-1.5-2.2
		s-1.6-0.8-2.6-0.8c-1.6,0-2.9,0.6-4,1.8s-1.5,3.2-1.5,6v18.4h-14L514.2,865.3L514.2,865.3z"/>
	<path class="st1" d="M582.4,883.6c0-5.5,1.9-10.1,5.6-13.7s8.8-5.4,15.1-5.4c7.3,0,12.8,2.1,16.5,6.3c3,3.4,4.5,7.6,4.5,12.5
		c0,5.6-1.8,10.2-5.5,13.7c-3.7,3.6-8.8,5.3-15.4,5.3c-5.8,0-10.5-1.5-14.2-4.4C584.6,894.3,582.4,889.5,582.4,883.6z M596.4,883.5
		c0,3.2,0.7,5.6,2,7.2c1.3,1.5,3,2.3,4.9,2.3c2,0,3.7-0.8,4.9-2.3c1.3-1.5,1.9-4,1.9-7.3c0-3.1-0.7-5.5-2-7s-2.9-2.3-4.8-2.3
		c-2,0-3.7,0.8-5,2.3C597,878,596.4,880.4,596.4,883.5z"/>
	<path class="st1" d="M630.9,851.5h14v17.4c1.4-1.5,3-2.5,4.7-3.3c1.8-0.7,3.7-1.1,5.9-1.1c4.4,0,8.1,1.6,11,4.8s4.3,7.7,4.3,13.7
		c0,4-0.7,7.5-2,10.5s-3.2,5.3-5.5,6.8s-4.9,2.2-7.8,2.2c-2.4,0-4.7-0.5-6.7-1.6c-1.5-0.8-3.2-2.4-5-4.6v5.4h-13L630.9,851.5
		L630.9,851.5z M644.8,883.4c0,3.1,0.6,5.4,1.8,6.8c1.2,1.4,2.7,2.1,4.5,2.1c1.7,0,3.1-0.7,4.2-2.1s1.7-3.7,1.7-7
		c0-2.9-0.5-5-1.7-6.3s-2.4-2-4-2c-1.9,0-3.4,0.7-4.6,2.1C645.4,878.4,644.8,880.5,644.8,883.4z"/>
	<path class="st1" d="M678,851.5h13.9v9.5H678V851.5z M678,865.3h13.9v36.3H678V865.3z"/>
	<path class="st1" d="M701.3,851.5h14v50.1h-14V851.5z"/>
	<path class="st1" d="M724.7,851.5h13.9v9.5h-13.9V851.5z M724.7,865.3h13.9v36.3h-13.9V865.3z"/>
	<path class="st1" d="M787.7,886.9h-27.9c0.2,2.2,0.8,3.9,1.8,5c1.3,1.6,3.1,2.4,5.3,2.4c1.4,0,2.7-0.3,3.9-1
		c0.8-0.4,1.6-1.2,2.4-2.3l13.7,1.3c-2.1,3.7-4.6,6.3-7.6,7.8s-7.2,2.4-12.8,2.4c-4.8,0-8.6-0.7-11.3-2c-2.8-1.4-5-3.5-6.8-6.5
		s-2.7-6.4-2.7-10.4c0-5.7,1.8-10.3,5.5-13.8s8.7-5.3,15.1-5.3c5.2,0,9.3,0.8,12.3,2.4s5.3,3.8,6.9,6.8c1.6,3,2.4,6.9,2.4,11.7
		L787.7,886.9L787.7,886.9z M773.6,880.3c-0.3-2.7-1-4.6-2.2-5.8s-2.7-1.7-4.6-1.7c-2.2,0-4,0.9-5.3,2.6c-0.8,1.1-1.4,2.7-1.6,4.9
		H773.6z"/>
	<path class="st1" d="M794.3,865.3h13v6c1.2-2.6,2.5-4.3,3.9-5.3c1.3-1,3-1.5,4.9-1.5c2,0,4.3,0.6,6.7,1.9l-4.3,9.9
		c-1.6-0.7-2.9-1-3.9-1c-1.8,0-3.2,0.8-4.2,2.3c-1.4,2.1-2.2,6.1-2.2,11.9v12.1h-14L794.3,865.3L794.3,865.3z"/>
	<path class="st1" d="M848.6,851.5h14.1v17.4c1.4-1.5,3-2.5,4.7-3.3c1.8-0.7,3.7-1.1,5.9-1.1c4.4,0,8.1,1.6,11,4.8s4.3,7.7,4.3,13.7
		c0,4-0.7,7.5-2,10.5s-3.2,5.3-5.5,6.8s-4.9,2.2-7.8,2.2c-2.4,0-4.7-0.5-6.7-1.6c-1.5-0.8-3.2-2.4-5-4.6v5.4h-13V851.5L848.6,851.5z
		 M862.6,883.4c0,3.1,0.6,5.4,1.8,6.8c1.2,1.4,2.7,2.1,4.5,2.1c1.7,0,3.1-0.7,4.2-2.1c1.1-1.4,1.7-3.7,1.7-7c0-2.9-0.6-5-1.7-6.3
		s-2.4-2-4-2c-1.9,0-3.4,0.7-4.6,2.1C863.2,878.4,862.6,880.5,862.6,883.4z"/>
	<path class="st1" d="M933.5,901.6h-13v-5.9c-1.9,2.4-3.9,4.1-5.9,5.2c-2,1-4.4,1.5-7.3,1.5c-3.8,0-6.8-1.1-9-3.4
		c-2.2-2.3-3.3-5.8-3.3-10.6v-23.1h14v20c0,2.3,0.4,3.9,1.3,4.8c0.8,1,2,1.4,3.6,1.4c1.7,0,3-0.6,4.1-1.9c1.1-1.3,1.6-3.6,1.6-6.9
		v-17.5h13.9L933.5,901.6L933.5,901.6z"/>
	<path class="st1" d="M942.1,865.3h13v6c1.2-2.6,2.6-4.3,3.9-5.3s3-1.5,4.9-1.5c2.1,0,4.3,0.6,6.7,1.9l-4.3,9.9
		c-1.6-0.7-2.9-1-3.9-1c-1.8,0-3.2,0.8-4.2,2.3c-1.4,2.1-2.2,6.1-2.2,11.9v12.1h-14L942.1,865.3L942.1,865.3z"/>
	<path class="st1" d="M1014.4,886.9h-27.9c0.2,2.2,0.8,3.9,1.8,5c1.3,1.6,3.1,2.4,5.3,2.4c1.4,0,2.7-0.3,3.9-1
		c0.8-0.4,1.6-1.2,2.4-2.3l13.7,1.3c-2.1,3.7-4.6,6.3-7.6,7.8s-7.2,2.4-12.8,2.4c-4.8,0-8.6-0.7-11.3-2c-2.8-1.4-5-3.5-6.8-6.5
		s-2.7-6.4-2.7-10.4c0-5.7,1.8-10.3,5.4-13.8s8.7-5.3,15.1-5.3c5.2,0,9.3,0.8,12.3,2.4s5.3,3.8,6.9,6.8s2.4,6.9,2.4,11.7
		L1014.4,886.9L1014.4,886.9z M1000.3,880.3c-0.3-2.7-1-4.6-2.2-5.8s-2.7-1.7-4.6-1.7c-2.2,0-4,0.9-5.3,2.6
		c-0.8,1.1-1.4,2.7-1.6,4.9H1000.3z"/>
	<path class="st1" d="M1033.5,877.1l-13.3-1.4c0.5-2.3,1.2-4.2,2.2-5.5c0.9-1.3,2.3-2.5,4.1-3.5c1.3-0.7,3-1.2,5.3-1.6
		s4.7-0.6,7.2-0.6c4.2,0,7.5,0.2,10.1,0.7s4.6,1.4,6.3,2.9c1.2,1,2.1,2.5,2.8,4.4s1,3.7,1,5.4v16c0,1.7,0.1,3,0.3,4
		c0.2,1,0.7,2.2,1.4,3.7h-13.1c-0.5-0.9-0.9-1.7-1-2.1s-0.3-1.3-0.5-2.3c-1.8,1.8-3.6,3-5.4,3.8c-2.5,1-5.3,1.5-8.6,1.5
		c-4.3,0-7.6-1-9.9-3c-2.2-2-3.4-4.5-3.4-7.4c0-2.8,0.8-5,2.4-6.8s4.6-3.1,9-4c5.2-1,8.6-1.8,10.2-2.2s3.2-1,4.9-1.7
		c0-1.7-0.3-2.9-1.1-3.6c-0.7-0.7-1.9-1-3.7-1c-2.3,0-4,0.4-5.1,1.1C1034.8,874.4,1034,875.5,1033.5,877.1z M1045.6,884.4
		c-1.9,0.7-3.9,1.3-6,1.8c-2.8,0.8-4.6,1.5-5.4,2.2c-0.8,0.8-1.2,1.6-1.2,2.6c0,1.1,0.4,2,1.2,2.7c0.8,0.7,1.9,1,3.4,1
		c1.6,0,3-0.4,4.3-1.1s2.3-1.7,2.8-2.8c0.6-1.1,0.8-2.5,0.8-4.2L1045.6,884.4L1045.6,884.4z"/>
	<path class="st1" d="M1105.8,901.6h-13v-5.9c-1.9,2.4-3.9,4.1-5.9,5.2c-2,1-4.4,1.5-7.3,1.5c-3.8,0-6.8-1.1-9-3.4
		c-2.2-2.3-3.3-5.8-3.3-10.6v-23.1h14v20c0,2.3,0.4,3.9,1.3,4.8c0.8,1,2,1.4,3.6,1.4c1.7,0,3-0.6,4.1-1.9c1.1-1.3,1.6-3.6,1.6-6.9
		v-17.5h13.9L1105.8,901.6L1105.8,901.6z"/>
</g>
<g>
	<path d="M-198.9,977.1h13.1v-13.2h11v13.2h13.2v11h-13.2v13.1h-11v-13.1h-13.1V977.1z"/>
	<path d="M-113.4,1007.6h-41.8c0.5-4.1,1.9-8,4.4-11.6c2.4-3.6,7-7.9,13.6-12.9c4.1-3,6.7-5.3,7.8-6.9c1.1-1.6,1.7-3.1,1.7-4.5
		c0-1.5-0.6-2.8-1.7-3.9c-1.1-1.1-2.5-1.6-4.3-1.6s-3.2,0.6-4.4,1.7c-1.1,1.1-1.9,3.1-2.3,5.9l-14-1.1c0.6-3.9,1.6-7,3-9.2
		c1.5-2.2,3.5-3.9,6.2-5.1c2.6-1.2,6.3-1.8,11-1.8c4.9,0,8.7,0.6,11.4,1.7c2.7,1.1,4.9,2.8,6.4,5.1c1.6,2.3,2.3,4.9,2.3,7.8
		c0,3.1-0.9,6-2.7,8.8c-1.8,2.8-5,5.8-9.8,9.2c-2.8,1.9-4.7,3.3-5.6,4.1c-1,0.8-2.1,1.8-3.3,3h21.7L-113.4,1007.6L-113.4,1007.6z"/>
	<path d="M-75.9,956.7v51H-90v-33.4c-2.3,1.7-4.5,3.1-6.6,4.2s-4.8,2.1-8,3.1v-11.4c4.7-1.5,8.4-3.4,11-5.5s4.7-4.8,6.2-7.9
		L-75.9,956.7L-75.9,956.7z"/>
	<path d="M-20.1,1007.6h-41.8c0.5-4.1,1.9-8,4.4-11.6c2.4-3.6,7-7.9,13.7-12.9c4.1-3,6.7-5.3,7.8-6.9c1.1-1.6,1.7-3.1,1.7-4.5
		c0-1.5-0.6-2.8-1.7-3.9c-1.1-1.1-2.5-1.6-4.3-1.6s-3.2,0.6-4.4,1.7c-1.1,1.1-1.9,3.1-2.3,5.9l-13.9-1.1c0.6-3.9,1.6-7,3-9.2
		c1.5-2.2,3.5-3.9,6.2-5.1c2.7-1.2,6.3-1.8,11-1.8c4.9,0,8.7,0.6,11.4,1.7c2.7,1.1,4.9,2.8,6.4,5.1c1.6,2.3,2.3,4.9,2.3,7.8
		c0,3.1-0.9,6-2.7,8.8s-5,5.8-9.8,9.2c-2.8,1.9-4.7,3.3-5.6,4.1c-0.9,0.8-2.1,1.8-3.3,3h21.7v11.3H-20.1z"/>
	<path d="M9.5,957.5h40.6v9.4c-3.5,3.2-6.5,6.6-8.9,10.4c-2.9,4.5-5.1,9.5-6.8,15.1c-1.3,4.3-2.2,9.4-2.7,15.3H17.8
		c1.1-8.2,2.8-15,5.2-20.6c2.4-5.5,6.1-11.5,11.1-17.8H9.4L9.5,957.5L9.5,957.5z"/>
	<path d="M56.2,957.5h40.6v9.4c-3.5,3.2-6.5,6.6-8.9,10.4c-2.9,4.5-5.1,9.5-6.8,15.1c-1.3,4.3-2.2,9.4-2.7,15.3H64.5
		c1.1-8.2,2.8-15,5.2-20.6c2.4-5.5,6.1-11.5,11.1-17.8H56L56.2,957.5L56.2,957.5z"/>
	<path d="M134.2,956.7v51h-14.1v-33.4c-2.3,1.7-4.5,3.1-6.6,4.2s-4.8,2.1-8,3.1v-11.4c4.7-1.5,8.4-3.4,11-5.5s4.7-4.8,6.1-7.9
		L134.2,956.7L134.2,956.7z"/>
	<path d="M181,980.7c-2.2-1.2-3.8-2.5-4.8-3.9c-1.4-2-2-4.2-2-6.8c0-4.2,2-7.6,5.9-10.3c3.1-2,7.1-3.1,12.2-3.1
		c6.7,0,11.6,1.3,14.9,3.8c3.2,2.6,4.8,5.8,4.8,9.6c0,2.3-0.6,4.4-1.9,6.3c-1,1.5-2.5,2.9-4.5,4.2c2.7,1.3,4.7,3,6.1,5.2
		c1.3,2.1,2,4.5,2,7.1c0,2.5-0.6,4.8-1.7,7s-2.6,3.9-4.2,5c-1.7,1.2-3.8,2.1-6.2,2.6c-2.5,0.6-5.2,0.8-8,0.8
		c-5.3,0-9.4-0.6-12.2-1.9s-4.9-3.1-6.4-5.5s-2.2-5.2-2.2-8.2c0-2.9,0.7-5.4,2-7.5C176.1,983.4,178.2,981.8,181,980.7z M186.5,992.4
		c0,2.2,0.7,4,2,5.4s2.9,2.1,4.6,2.1s3.2-0.7,4.5-2.1s2-3.2,2-5.4s-0.7-4-2-5.4s-2.9-2.1-4.6-2.1s-3.2,0.7-4.5,2
		S186.5,990.1,186.5,992.4z M187.3,970.9c0,1.7,0.5,3.1,1.6,4.2s2.5,1.6,4.3,1.6c1.6,0,2.9-0.5,3.9-1.6c1-1,1.5-2.4,1.5-4.1
		s-0.5-3.1-1.6-4.2s-2.4-1.6-4.1-1.6s-3.1,0.5-4.1,1.6C187.8,967.8,187.3,969.2,187.3,970.9z"/>
	<path d="M259.6,968.8l-13.8,1.7c-0.4-1.9-1-3.3-1.8-4.1c-0.9-0.8-1.9-1.2-3.2-1.2c-2.3,0-4,1.1-5.3,3.4c-0.9,1.6-1.6,5.2-2,10.5
		c1.7-1.7,3.4-2.9,5.1-3.7c1.8-0.8,3.8-1.2,6.1-1.2c4.5,0,8.2,1.6,11.3,4.8c3.1,3.2,4.6,7.2,4.6,12.1c0,3.3-0.8,6.3-2.3,9.1
		c-1.6,2.7-3.7,4.8-6.5,6.2s-6.2,2.1-10.4,2.1c-5,0-9-0.8-12.1-2.6c-3-1.7-5.5-4.4-7.3-8.2s-2.7-8.7-2.7-14.9
		c0-9.1,1.9-15.7,5.7-19.9s9.1-6.3,15.8-6.3c4,0,7.1,0.5,9.5,1.4c2.3,0.9,4.2,2.3,5.8,4.1C257.7,963.9,258.8,966.1,259.6,968.8z
		 M234,991.1c0,2.7,0.7,4.8,2,6.4c1.4,1.5,3,2.3,5,2.3c1.8,0,3.4-0.7,4.6-2.1s1.9-3.5,1.9-6.2c0-2.8-0.6-5-1.9-6.5s-2.9-2.2-4.8-2.2
		s-3.6,0.7-4.9,2.2C234.7,986.4,234,988.5,234,991.1z"/>
	<path d="M297.8,980.7c-2.2-1.2-3.8-2.5-4.8-3.9c-1.4-2-2-4.2-2-6.8c0-4.2,2-7.6,5.9-10.3c3.1-2,7.1-3.1,12.2-3.1
		c6.7,0,11.6,1.3,14.9,3.8c3.2,2.6,4.8,5.8,4.8,9.6c0,2.3-0.6,4.4-1.9,6.3c-1,1.5-2.5,2.9-4.5,4.2c2.7,1.3,4.7,3,6.1,5.2
		c1.3,2.1,2,4.5,2,7.1c0,2.5-0.6,4.8-1.7,7s-2.6,3.9-4.2,5c-1.7,1.2-3.8,2.1-6.2,2.6c-2.5,0.6-5.2,0.8-8,0.8
		c-5.3,0-9.4-0.6-12.2-1.9s-4.9-3.1-6.4-5.5s-2.2-5.2-2.2-8.2c0-2.9,0.7-5.4,2-7.5C292.8,983.4,294.9,981.8,297.8,980.7z
		 M303.3,992.4c0,2.2,0.7,4,2,5.4s2.9,2.1,4.6,2.1s3.2-0.7,4.5-2.1s2-3.2,2-5.4s-0.7-4-2-5.4s-2.9-2.1-4.6-2.1s-3.2,0.7-4.5,2
		S303.3,990.1,303.3,992.4z M304,970.9c0,1.7,0.5,3.1,1.6,4.2s2.5,1.6,4.3,1.6c1.6,0,2.9-0.5,3.9-1.6c1-1,1.5-2.4,1.5-4.1
		s-0.5-3.1-1.6-4.2s-2.4-1.6-4.1-1.6s-3.1,0.5-4.1,1.6C304.5,967.8,304,969.2,304,970.9z"/>
	<path d="M376.4,968.8l-13.8,1.7c-0.4-1.9-1-3.3-1.8-4.1s-1.9-1.2-3.2-1.2c-2.3,0-4,1.1-5.3,3.4c-0.9,1.6-1.6,5.2-2,10.5
		c1.7-1.7,3.4-2.9,5.1-3.7c1.8-0.8,3.8-1.2,6.1-1.2c4.5,0,8.2,1.6,11.3,4.8c3.1,3.2,4.6,7.2,4.6,12.1c0,3.3-0.8,6.3-2.3,9.1
		c-1.6,2.7-3.7,4.8-6.5,6.2s-6.2,2.1-10.4,2.1c-5,0-9-0.8-12.1-2.6c-3-1.7-5.5-4.4-7.3-8.2s-2.7-8.7-2.7-14.9
		c0-9.1,1.9-15.7,5.7-19.9c3.8-4.2,9.1-6.3,15.8-6.3c4,0,7.1,0.5,9.5,1.4c2.3,0.9,4.2,2.3,5.8,4.1
		C374.4,963.9,375.6,966.1,376.4,968.8z M350.7,991.1c0,2.7,0.7,4.8,2,6.4c1.4,1.5,3,2.3,5,2.3c1.8,0,3.3-0.7,4.6-2.1
		c1.2-1.4,1.8-3.5,1.8-6.2c0-2.8-0.6-5-1.9-6.5s-2.9-2.2-4.8-2.2s-3.6,0.7-4.9,2.2C351.4,986.4,350.7,988.5,350.7,991.1z"/>
	<path d="M414.5,980.7c-2.2-1.2-3.8-2.5-4.8-3.9c-1.4-2-2-4.2-2-6.8c0-4.2,2-7.6,5.9-10.3c3.1-2,7.1-3.1,12.2-3.1
		c6.7,0,11.7,1.3,14.8,3.8c3.2,2.6,4.8,5.8,4.8,9.6c0,2.3-0.6,4.4-1.9,6.3c-1,1.5-2.5,2.9-4.5,4.2c2.7,1.3,4.7,3,6.1,5.2
		c1.3,2.1,2,4.5,2,7.1c0,2.5-0.6,4.8-1.7,7s-2.6,3.9-4.2,5c-1.7,1.2-3.8,2.1-6.2,2.6c-2.5,0.6-5.2,0.8-8,0.8
		c-5.3,0-9.4-0.6-12.2-1.9s-4.9-3.1-6.4-5.5s-2.2-5.2-2.2-8.2c0-2.9,0.7-5.4,2-7.5C409.5,983.4,411.6,981.8,414.5,980.7z M420,992.4
		c0,2.2,0.7,4,2,5.4s2.9,2.1,4.6,2.1s3.2-0.7,4.5-2.1s2-3.2,2-5.4s-0.7-4-2-5.4s-2.9-2.1-4.6-2.1s-3.2,0.7-4.5,2
		C420.6,988.2,420,990.1,420,992.4z M420.7,970.9c0,1.7,0.5,3.1,1.6,4.2s2.5,1.6,4.3,1.6c1.6,0,2.9-0.5,3.9-1.6c1-1,1.5-2.4,1.5-4.1
		s-0.5-3.1-1.6-4.2s-2.4-1.6-4.1-1.6s-3.1,0.5-4.1,1.6C421.3,967.8,420.7,969.2,420.7,970.9z"/>
	<path d="M493.1,968.8l-13.8,1.7c-0.4-1.9-1-3.3-1.8-4.1c-0.9-0.8-1.9-1.2-3.2-1.2c-2.3,0-4,1.1-5.3,3.4c-0.9,1.6-1.6,5.2-2,10.5
		c1.7-1.7,3.4-2.9,5.1-3.7c1.8-0.8,3.8-1.2,6.1-1.2c4.5,0,8.2,1.6,11.3,4.8c3.1,3.2,4.6,7.2,4.6,12.1c0,3.3-0.8,6.3-2.3,9.1
		s-3.7,4.8-6.5,6.2s-6.2,2.1-10.4,2.1c-5,0-9-0.8-12.1-2.6c-3-1.7-5.5-4.4-7.3-8.2s-2.7-8.7-2.7-14.9c0-9.1,1.9-15.7,5.7-19.9
		c3.8-4.2,9.1-6.3,15.8-6.3c4,0,7.1,0.5,9.5,1.4c2.3,0.9,4.2,2.3,5.8,4.1C491.1,963.9,492.3,966.1,493.1,968.8z M467.5,991.1
		c0,2.7,0.7,4.8,2,6.4c1.4,1.5,3,2.3,5,2.3c1.8,0,3.3-0.7,4.6-2.1c1.2-1.4,1.8-3.5,1.8-6.2c0-2.8-0.6-5-1.9-6.5s-2.9-2.2-4.8-2.2
		s-3.6,0.7-4.9,2.2C468.1,986.4,467.5,988.5,467.5,991.1z"/>
</g>
<g>
	<path d="M-198.9,1086.5h13.1v-13.2h11v13.2h13.2v11h-13.2v13.1h-11v-13h-13.1V1086.5z"/>
	<path d="M-113.4,1117.1h-41.8c0.5-4.1,1.9-8,4.4-11.6c2.4-3.6,7-7.9,13.6-12.9c4.1-3,6.7-5.3,7.8-6.9s1.7-3.1,1.7-4.5
		c0-1.5-0.6-2.8-1.7-3.9c-1.1-1.1-2.5-1.6-4.3-1.6s-3.2,0.6-4.4,1.7c-1.1,1.1-1.9,3.1-2.3,5.9l-14-1.1c0.6-3.9,1.6-7,3-9.2
		c1.5-2.2,3.5-3.9,6.2-5.1c2.6-1.2,6.3-1.8,11-1.8c4.9,0,8.7,0.6,11.4,1.7c2.7,1.1,4.9,2.8,6.4,5.1c1.6,2.3,2.3,4.9,2.3,7.8
		c0,3.1-0.9,6-2.7,8.8c-1.8,2.8-5,5.8-9.8,9.2c-2.8,1.9-4.7,3.3-5.6,4.1c-1,0.8-2.1,1.8-3.3,3h21.7L-113.4,1117.1L-113.4,1117.1z"/>
	<path d="M-75.9,1066.1v51H-90v-33.4c-2.3,1.7-4.5,3.1-6.6,4.2s-4.8,2.1-8,3.1v-11.4c4.7-1.5,8.4-3.4,11-5.5s4.7-4.8,6.2-7.9
		L-75.9,1066.1L-75.9,1066.1z"/>
	<path d="M-20.1,1117.1h-41.8c0.5-4.1,1.9-8,4.4-11.6c2.4-3.6,7-7.9,13.7-12.9c4.1-3,6.7-5.3,7.8-6.9s1.7-3.1,1.7-4.5
		c0-1.5-0.6-2.8-1.7-3.9c-1.1-1.1-2.5-1.6-4.3-1.6s-3.2,0.6-4.4,1.7c-1.1,1.1-1.9,3.1-2.3,5.9l-13.9-1.1c0.6-3.9,1.6-7,3-9.2
		c1.5-2.2,3.5-3.9,6.2-5.1s6.3-1.8,11-1.8c4.9,0,8.7,0.6,11.4,1.7s4.9,2.8,6.4,5.1c1.6,2.3,2.3,4.9,2.3,7.8c0,3.1-0.9,6-2.7,8.8
		s-5,5.8-9.8,9.2c-2.8,1.9-4.7,3.3-5.6,4.1c-0.9,0.8-2.1,1.8-3.3,3h21.7v11.3H-20.1z"/>
	<path d="M49.5,1078.2l-13.8,1.7c-0.4-1.9-1-3.3-1.8-4.1c-0.9-0.8-1.9-1.2-3.2-1.2c-2.3,0-4,1.1-5.3,3.4c-0.9,1.6-1.6,5.2-2,10.5
		c1.7-1.7,3.4-2.9,5.1-3.7c1.8-0.8,3.8-1.2,6.1-1.2c4.5,0,8.2,1.6,11.3,4.8c3.1,3.2,4.6,7.2,4.6,12.1c0,3.3-0.8,6.3-2.3,9.1
		c-1.6,2.7-3.7,4.8-6.5,6.2c-2.8,1.4-6.2,2.1-10.4,2.1c-5,0-9-0.8-12.1-2.6c-3-1.7-5.4-4.4-7.3-8.2s-2.7-8.7-2.7-14.9
		c0-9.1,1.9-15.7,5.7-19.9c3.8-4.2,9.1-6.3,15.8-6.3c4,0,7.1,0.5,9.4,1.4s4.2,2.3,5.8,4.1C47.6,1073.3,48.7,1075.6,49.5,1078.2z
		 M23.9,1100.6c0,2.7,0.7,4.8,2.1,6.4c1.4,1.5,3,2.3,5,2.3c1.8,0,3.4-0.7,4.6-2.1s1.9-3.5,1.9-6.2c0-2.8-0.6-5-1.9-6.5
		c-1.3-1.5-2.9-2.2-4.8-2.2c-1.9,0-3.6,0.7-4.9,2.2C24.6,1095.8,23.9,1097.9,23.9,1100.6z"/>
	<path d="M96.2,1078.2l-13.8,1.7c-0.4-1.9-1-3.3-1.8-4.1c-0.9-0.8-1.9-1.2-3.2-1.2c-2.3,0-4,1.1-5.3,3.4c-0.9,1.6-1.6,5.2-2,10.5
		c1.7-1.7,3.4-2.9,5.1-3.7c1.8-0.8,3.8-1.2,6.1-1.2c4.5,0,8.2,1.6,11.3,4.8c3.1,3.2,4.6,7.2,4.6,12.1c0,3.3-0.8,6.3-2.3,9.1
		c-1.6,2.7-3.7,4.8-6.5,6.2c-2.8,1.4-6.2,2.1-10.4,2.1c-5,0-9-0.8-12.1-2.6c-3-1.7-5.4-4.4-7.3-8.2s-2.7-8.7-2.7-14.9
		c0-9.1,1.9-15.7,5.7-19.9c3.8-4.2,9.1-6.3,15.8-6.3c4,0,7.1,0.5,9.4,1.4s4.2,2.3,5.8,4.1C94.3,1073.3,95.4,1075.6,96.2,1078.2z
		 M70.6,1100.6c0,2.7,0.7,4.8,2.1,6.4c1.4,1.5,3,2.3,5,2.3c1.8,0,3.4-0.7,4.6-2.1s1.9-3.5,1.9-6.2c0-2.8-0.6-5-1.9-6.5
		s-2.9-2.2-4.8-2.2s-3.6,0.7-4.9,2.2C71.2,1095.8,70.6,1097.9,70.6,1100.6z"/>
	<path d="M126.5,1107.7h-25.4v-11.4l25.4-30.2h12.1v30.8h6.3v10.8h-6.3v9.4h-12.1L126.5,1107.7L126.5,1107.7z M126.5,1096.9v-15.8
		l-13.4,15.8H126.5z"/>
	<path d="M178.3,1067h33v11.1h-22.4l-1.2,7.5c1.5-0.7,3.1-1.3,4.6-1.6c1.5-0.4,3-0.6,4.5-0.6c5,0,9.1,1.5,12.2,4.6
		c3.1,3,4.7,6.8,4.7,11.4c0,3.2-0.8,6.3-2.4,9.3s-3.9,5.3-6.8,6.8c-3,1.6-6.7,2.4-11.3,2.4c-3.3,0-6.1-0.3-8.5-0.9s-4.4-1.6-6-2.8
		c-1.6-1.2-3-2.7-4-4.2s-1.9-3.5-2.6-5.9l14.1-1.5c0.3,2.3,1.1,4,2.4,5.1s2.8,1.8,4.5,1.8c1.9,0,3.5-0.7,4.8-2.2s1.9-3.7,1.9-6.6
		c0-3-0.6-5.2-1.9-6.6s-3-2.1-5.1-2.1c-1.3,0-2.6,0.3-3.9,1c-0.9,0.5-2,1.3-3.1,2.6l-11.9-1.7L178.3,1067z"/>
	<path d="M219.3,1091.8c0-9.5,1.7-16.2,5.1-20s8.6-5.7,15.7-5.7c3.4,0,6.1,0.4,8.3,1.2c2.2,0.8,3.9,1.9,5.3,3.2
		c1.4,1.3,2.4,2.7,3.2,4.2s1.4,3.2,1.9,5.1c0.9,3.7,1.4,7.6,1.4,11.7c0,9.1-1.5,15.8-4.6,20s-8.4,6.3-15.9,6.3
		c-4.2,0-7.6-0.7-10.2-2s-4.7-3.3-6.4-5.9c-1.2-1.8-2.1-4.4-2.8-7.6C219.7,1099.2,219.3,1095.7,219.3,1091.8z M233.2,1091.8
		c0,6.4,0.6,10.7,1.7,13.1s2.8,3.5,4.9,3.5c1.4,0,2.6-0.5,3.7-1.5c1-1,1.8-2.6,2.3-4.7s0.7-5.5,0.7-10c0-6.7-0.6-11.1-1.7-13.4
		s-2.8-3.4-5.1-3.4s-4,1.2-5,3.5S233.2,1085.5,233.2,1091.8z"/>
	<path d="M297.8,1090.1c-2.2-1.2-3.8-2.5-4.8-3.9c-1.4-2-2-4.2-2-6.8c0-4.2,2-7.6,5.9-10.3c3.1-2.1,7.1-3.1,12.2-3.1
		c6.7,0,11.6,1.3,14.9,3.8c3.2,2.6,4.8,5.8,4.8,9.6c0,2.3-0.6,4.4-1.9,6.3c-1,1.5-2.5,2.9-4.5,4.2c2.7,1.3,4.7,3,6.1,5.2
		c1.3,2.1,2,4.5,2,7.1c0,2.5-0.6,4.8-1.7,7s-2.6,3.9-4.2,5c-1.7,1.2-3.8,2.1-6.2,2.6c-2.5,0.6-5.2,0.8-8,0.8
		c-5.3,0-9.4-0.6-12.2-1.9s-4.9-3.1-6.4-5.5s-2.2-5.2-2.2-8.2c0-2.9,0.7-5.4,2-7.5S294.9,1091.3,297.8,1090.1z M303.3,1101.9
		c0,2.2,0.7,4,2,5.4s2.9,2.1,4.6,2.1s3.2-0.7,4.5-2.1s2-3.2,2-5.4c0-2.2-0.7-4-2-5.4s-2.9-2.1-4.6-2.1s-3.2,0.7-4.5,2.1
		S303.3,1099.5,303.3,1101.9z M304,1080.3c0,1.7,0.5,3.1,1.6,4.2s2.5,1.6,4.3,1.6c1.6,0,2.9-0.5,3.9-1.6s1.5-2.4,1.5-4.1
		s-0.5-3.1-1.6-4.2s-2.4-1.6-4.1-1.6s-3.1,0.5-4.1,1.6C304.5,1077.2,304,1078.6,304,1080.3z"/>
	<path d="M341.7,1067h33.1v11.1h-22.4l-1.2,7.5c1.5-0.7,3.1-1.3,4.6-1.6c1.5-0.4,3-0.6,4.5-0.6c5,0,9.1,1.5,12.2,4.6
		s4.7,6.8,4.7,11.4c0,3.2-0.8,6.3-2.4,9.3s-3.9,5.3-6.8,6.8c-3,1.6-6.7,2.4-11.3,2.4c-3.3,0-6.1-0.3-8.5-0.9s-4.4-1.6-6-2.8
		c-1.6-1.2-3-2.7-4-4.2s-1.9-3.5-2.6-5.9l14.1-1.5c0.3,2.3,1.1,4,2.4,5.1s2.8,1.8,4.5,1.8c1.9,0,3.5-0.7,4.8-2.2s1.9-3.7,1.9-6.6
		c0-3-0.6-5.2-1.9-6.6s-3-2.1-5.1-2.1c-1.3,0-2.6,0.3-3.9,1c-0.9,0.5-2,1.3-3.1,2.6l-11.9-1.7L341.7,1067z"/>
	<path d="M414.5,1090.1c-2.2-1.2-3.8-2.5-4.8-3.9c-1.4-2-2-4.2-2-6.8c0-4.2,2-7.6,5.9-10.3c3.1-2.1,7.1-3.1,12.2-3.1
		c6.7,0,11.7,1.3,14.8,3.8c3.2,2.6,4.8,5.8,4.8,9.6c0,2.3-0.6,4.4-1.9,6.3c-1,1.5-2.5,2.9-4.5,4.2c2.7,1.3,4.7,3,6.1,5.2
		c1.3,2.1,2,4.5,2,7.1c0,2.5-0.6,4.8-1.7,7s-2.6,3.9-4.2,5c-1.7,1.2-3.8,2.1-6.2,2.6c-2.5,0.6-5.2,0.8-8,0.8
		c-5.3,0-9.4-0.6-12.2-1.9c-2.8-1.2-4.9-3.1-6.4-5.5s-2.2-5.2-2.2-8.2c0-2.9,0.7-5.4,2-7.5S411.6,1091.3,414.5,1090.1z M420,1101.9
		c0,2.2,0.7,4,2,5.4s2.9,2.1,4.6,2.1s3.2-0.7,4.5-2.1s2-3.2,2-5.4c0-2.2-0.7-4-2-5.4s-2.9-2.1-4.6-2.1s-3.2,0.7-4.5,2.1
		S420,1099.5,420,1101.9z M420.7,1080.3c0,1.7,0.5,3.1,1.6,4.2s2.5,1.6,4.3,1.6c1.6,0,2.9-0.5,3.9-1.6s1.5-2.4,1.5-4.1
		s-0.5-3.1-1.6-4.2s-2.4-1.6-4.1-1.6s-3.1,0.5-4.1,1.6C421.3,1077.2,420.7,1078.6,420.7,1080.3z"/>
	<path d="M493.5,1117.1h-41.8c0.5-4.1,1.9-8,4.4-11.6c2.4-3.6,7-7.9,13.7-12.9c4.1-3,6.7-5.3,7.8-6.9s1.7-3.1,1.7-4.5
		c0-1.5-0.6-2.8-1.7-3.9s-2.5-1.6-4.3-1.6s-3.2,0.6-4.4,1.7c-1.1,1.1-1.9,3.1-2.3,5.9l-14-1.1c0.5-3.9,1.5-7,3-9.2s3.5-3.9,6.2-5.1
		s6.3-1.8,11-1.8c4.9,0,8.7,0.6,11.4,1.7s4.9,2.8,6.4,5.1s2.3,4.9,2.3,7.8c0,3.1-0.9,6-2.7,8.8s-5,5.8-9.8,9.2
		c-2.8,1.9-4.7,3.3-5.6,4.1c-1,0.8-2.1,1.8-3.3,3h21.7L493.5,1117.1L493.5,1117.1z"/>
</g>
<g>
	<path d="M-164.8,1196.3l13.6,4.1c-0.9,3.8-2.3,7-4.3,9.5c-2,2.6-4.4,4.5-7.3,5.8s-6.6,1.9-11.1,1.9c-5.5,0-9.9-0.8-13.3-2.4
		c-3.4-1.6-6.4-4.4-8.9-8.3c-2.5-4-3.8-9.1-3.8-15.3c0-8.3,2.2-14.7,6.6-19.1s10.6-6.7,18.7-6.7c6.3,0,11.3,1.3,14.9,3.8
		c3.6,2.6,6.3,6.5,8,11.8l-13.7,3c-0.5-1.5-1-2.6-1.5-3.3c-0.9-1.2-1.9-2.1-3.2-2.7c-1.2-0.6-2.6-1-4.2-1c-3.5,0-6.2,1.4-8.1,4.2
		c-1.4,2.1-2.1,5.4-2.1,9.9c0,5.6,0.8,9.4,2.5,11.4s4.1,3.1,7.1,3.1s5.2-0.8,6.7-2.5C-166.6,1201.9-165.5,1199.5-164.8,1196.3z"/>
	<path d="M-145.6,1191.8c0-8.2,2.3-14.6,6.8-19.1c4.6-4.6,10.9-6.8,19-6.8c8.3,0,14.8,2.2,19.3,6.7s6.8,10.8,6.8,18.8
		c0,5.9-1,10.7-3,14.4s-4.8,6.7-8.5,8.8c-3.7,2.1-8.4,3.1-13.9,3.1c-5.7,0-10.3-0.9-14-2.7c-3.7-1.8-6.7-4.7-9-8.5
		C-144.5,1202.5-145.6,1197.7-145.6,1191.8z M-130.1,1191.9c0,5.1,0.9,8.7,2.8,10.9c1.9,2.2,4.4,3.3,7.7,3.3c3.3,0,5.9-1.1,7.7-3.2
		c1.8-2.2,2.7-6.1,2.7-11.7c0-4.7-1-8.2-2.8-10.3c-1.9-2.2-4.5-3.3-7.7-3.3c-3.1,0-5.6,1.1-7.5,3.3
		C-129.2,1183.1-130.1,1186.8-130.1,1191.9z"/>
	<path d="M-85.3,1166.7h14.5l18.9,27.7v-27.7h14.6v50.1h-14.6l-18.8-27.5v27.5h-14.6C-85.3,1216.8-85.3,1166.7-85.3,1166.7z"/>
	<path d="M-30.6,1166.7h47.1v12.4H0.7v37.7h-15.5v-37.7h-15.8V1166.7L-30.6,1166.7z"/>
	<path d="M49.5,1208.6H31.9l-2.4,8.3H13.7l18.8-50.1h16.9l18.8,50.1H52L49.5,1208.6z M46.3,1197.7l-5.5-18l-5.5,18H46.3z"/>
	<path d="M105.3,1196.3l13.6,4.1c-0.9,3.8-2.4,7-4.3,9.5c-2,2.6-4.4,4.5-7.3,5.8s-6.6,1.9-11.1,1.9c-5.5,0-9.9-0.8-13.4-2.4
		c-3.4-1.6-6.4-4.4-8.9-8.3c-2.5-4-3.8-9.1-3.8-15.3c0-8.3,2.2-14.7,6.6-19.1s10.6-6.7,18.7-6.7c6.3,0,11.3,1.3,14.9,3.8
		c3.6,2.6,6.3,6.5,8,11.8l-13.7,3c-0.5-1.5-1-2.6-1.5-3.3c-0.9-1.2-1.9-2.1-3.2-2.7c-1.2-0.6-2.6-1-4.2-1c-3.5,0-6.2,1.4-8.1,4.2
		c-1.4,2.1-2.1,5.4-2.1,9.9c0,5.6,0.8,9.4,2.5,11.4s4.1,3.1,7.1,3.1s5.2-0.8,6.7-2.5C103.5,1201.9,104.6,1199.5,105.3,1196.3z"/>
	<path d="M122.9,1166.7H170v12.4h-15.8v37.7h-15.5v-37.7h-15.8L122.9,1166.7L122.9,1166.7z"/>
	<path d="M211.3,1177.6l-4.3,27c-0.1,0.6-0.1,0.9-0.1,1.2c0,0.4,0.1,0.7,0.3,1s0.6,0.3,1,0.3c1,0,2.2-0.5,3.5-1.4
		c2-1.4,3.6-3.3,4.8-5.9c1.3-2.6,1.9-5.7,1.9-9.4c0-6-1.7-10.8-5.2-14.2c-3.5-3.5-8.1-5.2-13.9-5.2c-4.3,0-8.2,1-11.7,3.1
		s-6.2,5-8.1,8.9s-2.9,8.2-2.9,12.9c0,7.3,2.1,13.1,6.2,17.4s9.5,6.4,16,6.4c3.2,0,6.3-0.5,9.2-1.6c3-1.1,5.8-2.7,8.5-4.8h7
		c-1.9,2.2-3.6,3.9-5.3,5.2c-2.5,1.8-5.4,3.3-8.6,4.5s-6.8,1.7-10.6,1.7c-5.3,0-10-1.2-14.2-3.7c-4.2-2.4-7.5-5.9-9.8-10.4
		s-3.5-9.5-3.5-14.9c0-5.7,1.2-10.9,3.7-15.5s5.7-8.2,9.8-10.7s8.9-3.7,14.4-3.7c7.2,0,13,2.3,17.5,6.8c4.5,4.6,6.8,10.4,6.8,17.7
		c0,4.3-0.9,8.2-2.6,11.8s-4.3,6.4-7.7,8.4c-2.6,1.6-5.1,2.4-7.4,2.4c-1.4,0-2.5-0.3-3.4-1s-1.5-1.7-1.9-3c-1.5,1.5-2.9,2.5-4.2,3.1
		c-1.2,0.6-2.6,0.9-4.1,0.9c-3,0-5.6-1.3-7.8-3.8s-3.3-6.2-3.3-10.9c0-5.6,1.4-10.6,4.2-15.1s6.3-6.8,10.4-6.8c1.6,0,3,0.4,4.3,1.1
		c1.2,0.8,2.5,2.1,3.7,3.9l0.6-3.9L211.3,1177.6L211.3,1177.6z M188.5,1200c0,2.7,0.6,4.8,1.7,6.3c0.9,1.1,2,1.7,3.3,1.7
		c1.5,0,2.8-0.6,4-1.9s2.2-3.7,3.1-7.4c0.9-3.7,1.3-7,1.3-10c0-2.2-0.5-3.9-1.4-5.1s-2.1-1.7-3.4-1.7c-1.5,0-2.8,0.6-4,1.7
		c-1.5,1.5-2.7,3.9-3.5,7.2C188.9,1194.2,188.5,1197.2,188.5,1200z"/>
	<path d="M228.7,1166.7h41.5v10.7h-26v8h24.1v10.2h-24.1v9.9h26.7v11.3h-42.2L228.7,1166.7L228.7,1166.7z"/>
	<path d="M276.6,1200.3l14.7-0.9c0.3,2.4,1,4.2,2,5.5c1.6,2,3.9,3,6.8,3c2.2,0,3.9-0.5,5.1-1.6c1.2-1,1.8-2.2,1.8-3.6
		c0-1.3-0.6-2.5-1.7-3.5s-3.8-2-7.9-2.9c-6.8-1.5-11.6-3.6-14.5-6.1s-4.4-5.8-4.4-9.7c0-2.6,0.8-5,2.2-7.3s3.7-4.1,6.7-5.4
		s7.1-2,12.3-2c6.4,0,11.3,1.2,14.6,3.6c3.4,2.4,5.4,6.2,6,11.4l-14.6,0.8c-0.4-2.3-1.2-3.9-2.4-4.9c-1.2-1-3-1.5-5.1-1.5
		c-1.8,0-3.2,0.4-4.1,1.1s-1.4,1.7-1.4,2.8c0,0.8,0.4,1.5,1.1,2.2s2.5,1.3,5.2,1.8c6.8,1.5,11.6,2.9,14.5,4.4s5.1,3.3,6.4,5.6
		c1.3,2.2,2,4.7,2,7.4c0,3.2-0.9,6.2-2.7,8.9s-4.3,4.8-7.5,6.2s-7.2,2.1-12.1,2.1c-8.5,0-14.4-1.6-17.7-4.9S277,1205.3,276.6,1200.3
		z"/>
	<path d="M329.8,1166.7h25.7c5.6,0,9.8,1.3,12.6,4s4.2,6.5,4.2,11.4c0,5.1-1.5,9-4.6,11.9s-7.7,4.3-13.9,4.3h-8.5v18.6h-15.6
		L329.8,1166.7L329.8,1166.7L329.8,1166.7z M345.3,1188.1h3.8c3,0,5.1-0.5,6.3-1.6s1.8-2.4,1.8-4s-0.5-2.9-1.6-4s-3-1.6-5.9-1.6
		h-4.4L345.3,1188.1L345.3,1188.1z"/>
	<path d="M380.6,1216.8v-50.1h25.8c4.8,0,8.4,0.4,11,1.2s4.6,2.3,6.1,4.6c1.5,2.2,2.3,4.9,2.3,8.1c0,2.8-0.6,5.2-1.8,7.2
		s-2.8,3.7-4.9,4.9c-1.3,0.8-3.1,1.5-5.4,2c1.8,0.6,3.2,1.2,4,1.8c0.6,0.4,1.4,1.3,2.5,2.6s1.8,2.4,2.2,3.1l7.5,14.5h-17.5
		l-8.3-15.3c-1-2-2-3.3-2.8-3.9c-1.1-0.8-2.4-1.2-3.8-1.2h-1.4v20.3L380.6,1216.8L380.6,1216.8z M396.2,1187h6.5
		c0.7,0,2.1-0.2,4.1-0.7c1-0.2,1.9-0.7,2.5-1.6s1-1.8,1-2.9c0-1.6-0.5-2.9-1.5-3.7c-1-0.9-3-1.3-5.8-1.3h-6.8L396.2,1187L396.2,1187
		z"/>
	<path d="M435.5,1166.7H451v50.1h-15.5V1166.7z"/>
	<path d="M458.6,1166.7h47.1v12.4h-15.8v37.7h-15.5v-37.7h-15.8L458.6,1166.7L458.6,1166.7z"/>
	<path d="M512.7,1166.7h29c4.8,0,8.5,1.2,11.1,3.6s3.9,5.4,3.9,8.9c0,3-0.9,5.5-2.8,7.6c-1.2,1.4-3,2.5-5.4,3.3
		c3.6,0.9,6.2,2.3,8,4.5s2.5,4.8,2.5,7.9c0,2.6-0.6,4.9-1.8,7s-2.9,3.7-5,4.9c-1.3,0.8-3.3,1.3-5.9,1.6c-3.5,0.5-5.8,0.7-6.9,0.7
		h-26.7L512.7,1166.7L512.7,1166.7z M528.3,1186.4h6.7c2.4,0,4.1-0.4,5-1.2s1.4-2,1.4-3.6c0-1.5-0.5-2.6-1.4-3.4
		c-1-0.8-2.6-1.2-4.9-1.2h-6.8V1186.4L528.3,1186.4z M528.3,1206.1h7.9c2.7,0,4.5-0.5,5.6-1.4s1.6-2.2,1.6-3.8
		c0-1.5-0.5-2.7-1.6-3.6s-3-1.3-5.7-1.3h-7.9L528.3,1206.1L528.3,1206.1z"/>
	<path d="M597.9,1166.7h15.5v29.8c0,3-0.5,5.8-1.4,8.4s-2.4,4.9-4.3,6.9c-2,2-4,3.3-6.2,4.2c-3,1.1-6.6,1.7-10.8,1.7
		c-2.4,0-5.1-0.2-8-0.5s-5.3-1-7.2-2s-3.7-2.4-5.3-4.3s-2.7-3.8-3.3-5.8c-1-3.2-1.4-6-1.4-8.5v-29.8H581v30.6c0,2.7,0.8,4.9,2.3,6.4
		s3.6,2.3,6.3,2.3s4.8-0.8,6.3-2.3s2.3-3.7,2.3-6.4L597.9,1166.7L597.9,1166.7z"/>
	<path d="M623.8,1216.8v-50.1h25.8c4.8,0,8.4,0.4,11,1.2s4.6,2.3,6.1,4.6c1.5,2.2,2.3,4.9,2.3,8.1c0,2.8-0.6,5.2-1.8,7.2
		s-2.8,3.7-4.9,4.9c-1.3,0.8-3.1,1.5-5.4,2c1.8,0.6,3.2,1.2,4,1.8c0.6,0.4,1.4,1.3,2.5,2.6s1.8,2.4,2.2,3.1l7.5,14.5h-17.5
		l-8.3-15.3c-1-2-2-3.3-2.8-3.9c-1.1-0.8-2.4-1.2-3.8-1.2h-1.4v20.3L623.8,1216.8L623.8,1216.8z M639.3,1187h6.5
		c0.7,0,2.1-0.2,4.1-0.7c1-0.2,1.9-0.7,2.5-1.6s1-1.8,1-2.9c0-1.6-0.5-2.9-1.5-3.7c-1-0.9-3-1.3-5.8-1.3h-6.8V1187L639.3,1187z"/>
	<path d="M678,1166.7h41.5v10.7h-26v8h24.1v10.2h-24.1v9.9h26.7v11.3H678V1166.7L678,1166.7z"/>
	<path d="M759.4,1208.6h-17.6l-2.4,8.3h-15.8l18.8-50.1h16.9l18.8,50.1h-16.2L759.4,1208.6z M756.2,1197.7l-5.5-18l-5.5,18H756.2z"
		/>
	<path d="M813.2,1166.7h15.5v29.8c0,3-0.5,5.8-1.4,8.4s-2.4,4.9-4.3,6.9c-2,2-4,3.3-6.2,4.2c-3,1.1-6.6,1.7-10.8,1.7
		c-2.4,0-5.1-0.2-8-0.5s-5.3-1-7.2-2s-3.7-2.4-5.3-4.3s-2.7-3.8-3.3-5.8c-1-3.2-1.4-6-1.4-8.5v-29.8h15.5v30.6
		c0,2.7,0.8,4.9,2.3,6.4s3.6,2.3,6.3,2.3s4.8-0.8,6.3-2.3s2.3-3.7,2.3-6.4L813.2,1166.7L813.2,1166.7z"/>
	<path d="M835.7,1202.9h14.9v13.9h-14.9V1202.9z"/>
	<path d="M893.2,1196.3l13.6,4.1c-0.9,3.8-2.3,7-4.3,9.5c-2,2.6-4.4,4.5-7.3,5.8s-6.6,1.9-11.1,1.9c-5.4,0-9.9-0.8-13.3-2.4
		s-6.4-4.4-8.9-8.3c-2.5-4-3.8-9.1-3.8-15.3c0-8.3,2.2-14.7,6.6-19.1s10.7-6.7,18.7-6.7c6.3,0,11.3,1.3,14.9,3.8
		c3.6,2.6,6.3,6.5,8.1,11.8l-13.7,3c-0.5-1.5-1-2.6-1.5-3.3c-0.9-1.2-1.9-2.1-3.2-2.7c-1.2-0.6-2.7-1-4.2-1c-3.5,0-6.2,1.4-8.1,4.2
		c-1.4,2.1-2.1,5.4-2.1,9.9c0,5.6,0.8,9.4,2.5,11.4c1.7,2.1,4.1,3.1,7.1,3.1s5.2-0.8,6.7-2.5
		C891.4,1201.9,892.5,1199.5,893.2,1196.3z"/>
	<path d="M912.4,1191.8c0-8.2,2.3-14.6,6.8-19.1c4.6-4.6,10.9-6.8,19-6.8c8.3,0,14.8,2.2,19.3,6.7s6.8,10.8,6.8,18.8
		c0,5.9-1,10.7-3,14.4s-4.8,6.7-8.5,8.8c-3.7,2.1-8.4,3.1-13.9,3.1c-5.7,0-10.3-0.9-14-2.7c-3.7-1.8-6.7-4.7-9-8.5
		C913.5,1202.5,912.4,1197.7,912.4,1191.8z M927.9,1191.9c0,5.1,0.9,8.7,2.8,10.9c1.9,2.2,4.4,3.3,7.7,3.3s5.9-1.1,7.7-3.2
		c1.8-2.2,2.7-6.1,2.7-11.7c0-4.7-0.9-8.2-2.8-10.3c-1.9-2.2-4.5-3.3-7.7-3.3c-3.1,0-5.6,1.1-7.5,3.3
		C928.8,1183.1,927.9,1186.8,927.9,1191.9z"/>
	<path d="M972.5,1166.7h20.4l7.8,30.5l7.8-30.5h20.3v50.1h-12.7v-38.2l-9.8,38.2h-11.5l-9.8-38.2v38.2h-12.6L972.5,1166.7
		L972.5,1166.7z"/>
</g>
<g>
	<path class="st1" d="M-151.5,1331.9h14.7l5.3,28.1l7.8-28.1h14.6l7.8,28l5.3-28h14.6l-11.1,50.1h-15.1l-8.8-31.6l-8.8,31.6h-15.1
		L-151.5,1331.9z"/>
	<path class="st1" d="M-81.5,1331.9h14.7l5.3,28.1l7.8-28.1H-39l7.8,28l5.3-28h14.6l-11.1,50.1h-15.2l-8.8-31.6l-8.8,31.6h-15.1
		L-81.5,1331.9z"/>
	<path class="st1" d="M-11.5,1331.9H3.2l5.3,28.1l7.8-28.1h14.6l7.8,28l5.3-28h14.6L47.5,1382H32.4l-8.8-31.6l-8.8,31.6H-0.4
		L-11.5,1331.9z"/>
	<path class="st1" d="M59.2,1368.1h14.9v13.9H59.2V1368.1z"/>
	<path class="st1" d="M83.4,1331.9h41.5v10.7h-26v8H123v10.2H98.9v9.9h26.7v11.3H83.4V1331.9L83.4,1331.9z"/>
	<path class="st1" d="M131.3,1365.5l14.7-0.9c0.3,2.4,1,4.2,2,5.5c1.6,2,3.9,3,6.8,3c2.2,0,3.9-0.5,5.1-1.6c1.2-1,1.8-2.2,1.8-3.6
		c0-1.3-0.6-2.5-1.7-3.5s-3.8-2-7.9-2.9c-6.8-1.5-11.6-3.6-14.5-6.1s-4.4-5.8-4.4-9.7c0-2.6,0.8-5,2.2-7.3s3.7-4.1,6.7-5.4
		s7.1-2,12.3-2c6.4,0,11.3,1.2,14.6,3.6c3.4,2.4,5.4,6.2,6,11.4l-14.6,0.8c-0.4-2.3-1.2-3.9-2.4-4.9s-3-1.5-5.1-1.5
		c-1.8,0-3.2,0.4-4.1,1.1s-1.4,1.7-1.4,2.8c0,0.8,0.4,1.5,1.1,2.2s2.5,1.3,5.2,1.8c6.8,1.5,11.6,2.9,14.5,4.4s5.1,3.3,6.4,5.6
		c1.3,2.2,2,4.7,2,7.4c0,3.2-0.9,6.2-2.7,8.9s-4.3,4.8-7.5,6.2s-7.2,2.1-12.1,2.1c-8.5,0-14.4-1.6-17.7-4.9
		S131.7,1370.5,131.3,1365.5z"/>
	<path class="st1" d="M184.4,1331.9h25.7c5.6,0,9.8,1.3,12.6,4s4.2,6.5,4.2,11.4c0,5.1-1.5,9-4.6,11.9s-7.7,4.3-13.9,4.3h-8.5v18.6
		h-15.5V1331.9L184.4,1331.9z M200,1353.3h3.8c3,0,5.1-0.5,6.3-1.6c1.2-1,1.8-2.4,1.8-4s-0.5-2.9-1.6-4c-1-1.1-3-1.6-5.9-1.6H200
		V1353.3L200,1353.3z"/>
	<path class="st1" d="M235.3,1382v-50.1h25.8c4.8,0,8.4,0.4,11,1.2s4.6,2.3,6.1,4.6c1.5,2.2,2.3,4.9,2.3,8.1c0,2.8-0.6,5.2-1.8,7.2
		c-1.2,2-2.8,3.7-4.9,4.9c-1.3,0.8-3.1,1.5-5.4,2c1.8,0.6,3.2,1.2,4,1.8c0.6,0.4,1.4,1.3,2.5,2.6c1.1,1.3,1.8,2.4,2.2,3.1l7.5,14.5
		h-17.5l-8.3-15.3c-1-2-2-3.3-2.8-3.9c-1.1-0.8-2.4-1.2-3.8-1.2h-1.4v20.3L235.3,1382L235.3,1382z M250.8,1352.2h6.5
		c0.7,0,2.1-0.2,4.1-0.7c1-0.2,1.9-0.7,2.5-1.6c0.6-0.8,1-1.8,1-2.9c0-1.6-0.5-2.9-1.5-3.7s-3-1.3-5.8-1.3h-6.8V1352.2L250.8,1352.2
		z"/>
	<path class="st1" d="M290.1,1331.9h15.5v50.1h-15.5V1331.9z"/>
	<path class="st1" d="M313.2,1331.9h47.1v12.4h-15.8v37.7H329v-37.7h-15.8V1331.9L313.2,1331.9z"/>
	<path class="st1" d="M367.3,1331.9h29c4.8,0,8.5,1.2,11.1,3.6s3.9,5.4,3.9,8.9c0,3-0.9,5.5-2.8,7.6c-1.2,1.4-3,2.5-5.4,3.3
		c3.6,0.9,6.2,2.3,8,4.5s2.5,4.8,2.5,7.9c0,2.6-0.6,4.9-1.8,7s-2.9,3.7-5,4.9c-1.3,0.8-3.3,1.3-5.9,1.6c-3.5,0.5-5.8,0.7-6.9,0.7
		h-26.7L367.3,1331.9L367.3,1331.9z M382.9,1351.6h6.7c2.4,0,4.1-0.4,5-1.2c1-0.8,1.4-2,1.4-3.6c0-1.5-0.5-2.6-1.4-3.4
		c-1-0.8-2.6-1.2-4.9-1.2h-6.8L382.9,1351.6L382.9,1351.6z M382.9,1371.3h7.9c2.7,0,4.5-0.5,5.6-1.4s1.6-2.2,1.6-3.8
		c0-1.5-0.5-2.7-1.6-3.6s-3-1.3-5.7-1.3h-7.9L382.9,1371.3L382.9,1371.3z"/>
	<path class="st1" d="M452.5,1331.9H468v29.8c0,3-0.5,5.8-1.4,8.4s-2.4,4.9-4.3,6.9c-2,2-4,3.3-6.2,4.2c-3,1.1-6.6,1.7-10.8,1.7
		c-2.4,0-5.1-0.2-8-0.5s-5.3-1-7.2-2s-3.7-2.4-5.3-4.3s-2.7-3.8-3.3-5.8c-1-3.2-1.4-6-1.4-8.5V1332h15.3v30.6c0,2.7,0.8,4.9,2.3,6.4
		s3.6,2.3,6.3,2.3s4.8-0.8,6.3-2.3s2.3-3.7,2.3-6.4L452.5,1331.9L452.5,1331.9z"/>
	<path class="st1" d="M478.4,1382v-50.1h25.8c4.8,0,8.4,0.4,11,1.2s4.6,2.3,6.1,4.6c1.5,2.2,2.3,4.9,2.3,8.1c0,2.8-0.6,5.2-1.8,7.2
		s-2.8,3.7-4.9,4.9c-1.3,0.8-3.1,1.5-5.4,2c1.8,0.6,3.2,1.2,4,1.8c0.6,0.4,1.4,1.3,2.5,2.6c1.1,1.3,1.8,2.4,2.2,3.1l7.5,14.5h-17.5
		l-8.3-15.3c-1-2-2-3.3-2.8-3.9c-1.1-0.8-2.4-1.2-3.8-1.2h-1.4v20.3L478.4,1382L478.4,1382z M494,1352.2h6.5c0.7,0,2.1-0.2,4.1-0.7
		c1-0.2,1.9-0.7,2.5-1.6s1-1.8,1-2.9c0-1.6-0.5-2.9-1.5-3.7c-1-0.9-3-1.3-5.8-1.3H494V1352.2L494,1352.2z"/>
	<path class="st1" d="M532.7,1331.9h41.5v10.7h-26v8h24.1v10.2h-24.1v9.9h26.7v11.3h-42.2V1331.9L532.7,1331.9z"/>
	<path class="st1" d="M614,1373.8h-17.6l-2.4,8.3h-15.8L597,1332h16.9l18.8,50.1h-16.2L614,1373.8z M610.8,1362.9l-5.5-18l-5.5,18
		H610.8z"/>
	<path class="st1" d="M667.9,1331.9h15.5v29.8c0,3-0.5,5.8-1.4,8.4s-2.4,4.9-4.3,6.9c-2,2-4,3.3-6.2,4.2c-3,1.1-6.6,1.7-10.8,1.7
		c-2.4,0-5.1-0.2-8-0.5s-5.3-1-7.2-2s-3.7-2.4-5.3-4.3s-2.7-3.8-3.3-5.8c-1-3.2-1.4-6-1.4-8.5V1332H651v30.6c0,2.7,0.8,4.9,2.3,6.4
		s3.6,2.3,6.3,2.3s4.8-0.8,6.3-2.3s2.3-3.7,2.3-6.4L667.9,1331.9L667.9,1331.9z"/>
	<path class="st1" d="M690.3,1368.1h14.9v13.9h-14.9V1368.1z"/>
	<path class="st1" d="M747.9,1361.5l13.6,4.1c-0.9,3.8-2.3,7-4.3,9.5c-2,2.6-4.4,4.5-7.3,5.8c-2.9,1.3-6.6,1.9-11.1,1.9
		c-5.5,0-9.9-0.8-13.3-2.4c-3.5-1.6-6.4-4.4-8.9-8.3c-2.5-4-3.8-9.1-3.8-15.3c0-8.3,2.2-14.7,6.6-19.1s10.7-6.7,18.7-6.7
		c6.3,0,11.3,1.3,14.9,3.8c3.6,2.6,6.3,6.5,8,11.8l-13.7,3c-0.5-1.5-1-2.6-1.5-3.3c-0.9-1.2-1.9-2.1-3.2-2.7c-1.2-0.6-2.7-1-4.2-1
		c-3.5,0-6.2,1.4-8.1,4.2c-1.4,2.1-2.1,5.4-2.1,9.9c0,5.6,0.8,9.4,2.5,11.4s4.1,3.1,7.1,3.1s5.2-0.8,6.7-2.5
		C746.1,1367.1,747.2,1364.7,747.9,1361.5z"/>
	<path class="st1" d="M767,1357c0-8.2,2.3-14.6,6.8-19.1c4.6-4.6,10.9-6.8,19-6.8c8.3,0,14.8,2.2,19.3,6.7s6.8,10.8,6.8,18.8
		c0,5.9-1,10.7-3,14.4c-2,3.8-4.8,6.7-8.5,8.8c-3.7,2.1-8.4,3.1-13.9,3.1c-5.7,0-10.3-0.9-14-2.7c-3.7-1.8-6.7-4.7-9-8.5
		C768.2,1367.7,767,1362.9,767,1357z M782.5,1357.1c0,5.1,0.9,8.7,2.8,10.9c1.9,2.2,4.4,3.3,7.7,3.3s5.9-1.1,7.7-3.2
		c1.8-2.2,2.7-6.1,2.7-11.7c0-4.7-1-8.2-2.8-10.3c-1.9-2.2-4.5-3.3-7.7-3.3c-3.1,0-5.6,1.1-7.5,3.3
		C783.5,1348.3,782.5,1352,782.5,1357.1z"/>
	<path class="st1" d="M827.1,1331.9h20.4l7.8,30.5l7.8-30.5h20.3v50.1h-12.7v-38.2l-9.8,38.2h-11.5l-9.8-38.2v38.2h-12.7
		L827.1,1331.9L827.1,1331.9z"/>
</g>
<g>
	<g>
		<g>
			<g>
				<path class="st0" d="M31.8,500.1v14.2H61v18.9H31.8v14.3h36.4v18.9H12.7v-85.3h55.5v19.1L31.8,500.1L31.8,500.1z"/>
				<path class="st0" d="M102.2,532.8c-8.5,0-14.6-1.9-18.4-5.7c-3.8-3.7-5.7-9.9-5.7-18.3v-3.6c0-8.5,1.9-14.5,5.7-18.3
					c3.8-3.8,10-5.7,18.4-5.7h38.9v18.9H107c-4.8,0-7.2,2.4-7.2,7.2v0.4c0,4.8,2.4,7.2,7.2,7.2h11.1c8.5,0,14.6,1.9,18.4,5.7
					s5.7,9.9,5.7,18.3v3.6c0,8.5-1.9,14.5-5.7,18.3s-10,5.7-18.4,5.7H79.2v-18.9h34.2c4.8,0,7.2-2.4,7.2-7.2V540
					c0-4.8-2.4-7.2-7.2-7.2L102.2,532.8L102.2,532.8z"/>
				<path class="st0" d="M151.7,481.1h32.9c7.3,0,13.5,2.6,18.7,7.7c5.1,5.2,7.7,11.8,7.7,20c0,8.8-2.6,15.8-7.7,20.9
					c-5.1,5.2-11.3,7.7-18.7,7.7h-13.1v29.1h-19.8V481.1L151.7,481.1z M171.5,500.8v16.8h13.1c1.8,0,3.4-0.6,4.7-1.9
					c1.4-1.3,2-3.6,2-6.9c0-2.8-0.6-4.8-2-6.1c-1.4-1.3-2.9-1.9-4.7-1.9L171.5,500.8L171.5,500.8z"/>
				<path class="st0" d="M250.6,537.3h-9.7v29.1h-19.8v-85.3H254c7.3,0,13.5,2.6,18.7,7.7c5.1,5.2,7.7,11.8,7.7,20
					c0,8.8-2.6,15.8-7.7,20.9c-1.1,1.1-2.4,2.1-3.6,3l11,33.7H260L250.6,537.3z M240.9,500.8v16.8h13.2c1.8,0,3.4-0.6,4.7-1.9
					c1.4-1.3,2-3.6,2-6.9c0-2.8-0.6-4.8-2-6.1c-1.4-1.3-2.9-1.9-4.7-1.9L240.9,500.8L240.9,500.8z"/>
			</g>
			<g>
				<path class="st0" d="M290.6,566.4v-85.3h19.1v85.3H290.6L290.6,566.4z"/>
			</g>
			<g>
				<path class="st0" d="M376.3,499.9h-20.4v66.5h-19.1v-66.5h-20.3v-18.8h59.9L376.3,499.9L376.3,499.9z"/>
				<path class="st0" d="M467.5,522.7c2.1,2.3,3.9,4.9,5.1,8c1.2,3,1.8,6.2,1.8,9.7c0,3.6-0.7,6.9-2.1,10.1
					c-1.4,3.2-3.2,5.9-5.6,8.3c-2.4,2.4-5.2,4.2-8.3,5.6c-3.2,1.4-6.6,2.1-10.1,2.1h-33.8v-85.2h32.2c3.6,0,6.9,0.6,10.1,2
					s5.9,3.2,8.3,5.6s4.2,5.2,5.6,8.4c1.4,3.2,2.1,6.5,2.1,10.2c0,2.9-0.5,5.7-1.4,8.2C470.4,518.2,469.2,520.5,467.5,522.7z
					 M433.6,500.2v14h13.3c1.9-0.1,3.6-0.8,4.9-2.1c1.3-1.4,2-2.9,2-4.8c0-2-0.7-3.7-2.1-5.1s-3.1-2-5-2L433.6,500.2L433.6,500.2z
					 M448.3,547.3c2,0,3.7-0.7,5.1-2c1.4-1.4,2.1-3,2.1-4.9c0-2-0.7-3.7-2.1-5c-1.4-1.4-3.1-2-5.1-2h-14.7v14L448.3,547.3
					L448.3,547.3z"/>
			</g>
			<g>
				<path class="st0" d="M516.1,566.4c-4.4,0-8.7-0.9-12.6-2.6s-7.4-4-10.3-6.9s-5.3-6.4-7-10.2s-2.6-8.1-2.6-12.5v-52.9h19.2v52.9
					c0,1.9,0.4,3.6,1.1,5.2c0.7,1.6,1.6,3.1,2.9,4.3c1.2,1.2,2.7,2.2,4.2,2.9c1.6,0.7,3.3,1.1,5.2,1.1s3.6-0.4,5.2-1.1
					c1.6-0.7,3.1-1.6,4.3-2.9c1.2-1.2,2.2-2.7,2.9-4.3s1.1-3.4,1.1-5.2v-52.9h19v52.9c0,4.4-0.9,8.6-2.6,12.5c-1.7,3.9-4,7.3-7,10.2
					s-6.4,5.2-10.3,6.9C524.8,565.5,520.7,566.4,516.1,566.4z"/>
			</g>
			<g>
				<path class="st0" d="M590.9,537.3h-9.7v29.1h-19.8v-85.3h32.9c7.3,0,13.5,2.6,18.7,7.7c5.2,5.2,7.7,11.8,7.7,20
					c0,8.8-2.6,15.8-7.7,20.9c-1.1,1.1-2.4,2.1-3.6,3l11,33.7h-20.1L590.9,537.3z M581.3,500.8v16.8h13.1c1.8,0,3.4-0.6,4.7-1.9
					c1.3-1.3,2-3.6,2-6.9c0-2.8-0.6-4.8-2-6.1c-1.4-1.3-2.9-1.9-4.7-1.9L581.3,500.8L581.3,500.8z"/>
			</g>
			<g>
				<path class="st0" d="M650.2,500.1v14.2h29.2v18.9h-29.2v14.3h36.4v18.9H631v-85.3h55.5v19.1L650.2,500.1L650.2,500.1z"/>
			</g>
			<g>
				<path class="st0" d="M714.5,549.7l-4,16.7h-19.6l20.1-85.3h28.4l20.3,85.3h-19.6l-3.9-16.7H714.5z M731.7,530.8l-6.4-27l-6.4,27
					H731.7z"/>
			</g>
			<g>
				<path class="st0" d="M795.4,566.4c-4.4,0-8.7-0.9-12.6-2.6c-3.9-1.7-7.4-4-10.3-6.9c-2.9-2.9-5.3-6.4-7-10.2
					c-1.7-3.9-2.6-8.1-2.6-12.5v-52.9H782v52.9c0,1.9,0.4,3.6,1.1,5.2c0.7,1.6,1.6,3.1,2.9,4.3c1.2,1.2,2.6,2.2,4.2,2.9
					c1.6,0.7,3.3,1.1,5.2,1.1s3.6-0.4,5.2-1.1c1.6-0.7,3.1-1.6,4.3-2.9c1.2-1.2,2.2-2.7,2.9-4.3s1.1-3.4,1.1-5.2v-52.9h19v52.9
					c0,4.4-0.9,8.6-2.6,12.5c-1.7,3.9-4,7.3-7,10.2s-6.4,5.2-10.3,6.9C804.1,565.5,799.9,566.4,795.4,566.4z"/>
			</g>
		</g>
		<g>
			<g>
				<path class="st1" d="M376.7,219.8v61.3c0,0.4,0.4,0.8,0.7,0.8h54.1c8-0.4,14.8-3.5,20.3-9.5s8.2-13.2,8.2-21.5
					c0-8.5-2.5-15.7-7.5-21.5c-5.2-6-16.1-10.4-23.7-10.4h-51.4C377,219,376.7,219.4,376.7,219.8"/>
				<path class="st1" d="M444.4,369.3c11.5,0,20.7-5.2,27.6-15.8c2.7-4.2,4.4-9.1,4.9-14.1c1.2-12.2-1.9-22.4-9.2-30.3
					c-6.3-6.8-14.1-10.2-23.3-10.2h-66.9c-0.5,0-0.9,0.4-0.9,0.9v68.5c0,0.5,0.4,0.9,0.9,0.9h66.9V369.3z"/>
				<path class="st1" d="M360,339.8V381h135.7l-3.2,70.9h-166c-20.9,0-38-17-38-37.9V164c0-17.8,14.4-32.2,32.2-32.2h190.7
					l-26.9,71.3H360v64.6"/>
			</g>
			<rect x="10.3" y="580" class="st1" width="820.3" height="9.9"/>
		</g>
	</g>
</g>
</svg>
