<?xml version="1.0" encoding="utf-8"?>
<!-- Generator: Adobe Illustrator 26.0.0, SVG Export Plug-In . SVG Version: 6.00 Build 0)  -->
<svg version="1.1" xmlns="http://www.w3.org/2000/svg" xmlns:xlink="http://www.w3.org/1999/xlink" x="0px" y="0px"
	 viewBox="0 0 645.8 571.3" style="enable-background:new 0 0 645.8 571.3;" xml:space="preserve">
<style type="text/css">
	.st0{fill:#212B37;}
	.st1{fill:#E62F38;}
</style>
<g id="Background">
	<text transform="matrix(1 0 0 1 765.6373 -719.624)" style="fill:#3C3C3B; font-family:'Poppins-Bold'; font-size:98.1121px;">MOSALA</text>
</g>
<g id="Layer_1">
	<g id="XMLID_37_">
		<path id="XMLID_146_" class="st0" d="M487.3,147.6v287.8c0,17.3-14,31.3-31.3,31.3h0c-17.3,0-31.3-14-31.3-31.3V244.6l-65.6,196.3
			c-5.2,15.4-19.6,25.8-35.9,25.8l0,0c-16.2,0-30.7-10.4-35.8-25.8l-66.1-196.4v179c0,23.9-19.3,43.2-43.2,43.2l0,0v0
			c0,43.7,35.4,79,79,79H538c43.7,0,79-35.4,79-79V226.7c0-43.7-35.4-79-79-79H487.3z"/>
		<path id="XMLID_148_" class="st1" d="M201.6,119.8h9.3c18.7,0,35.3,12,41.1,29.8l71,217.5l73.2-225.7
			c4.2-12.9,16.2-21.7,29.8-21.7h55.3v-15.3c0-43.7-35.4-79-79-79H107.8c-43.7,0-79,35.4-79,79v280.8c0,43.7,35.4,79,79,79h50.6V163
			C158.4,139.2,177.8,119.8,201.6,119.8z"/>
	</g>
	<text transform="matrix(1 0 0 1 683.4889 -647.8163)" style="fill:#575756; font-family:'Poppins-Regular'; font-size:48.5749px;">MUTU NIOSO AKOBONGA</text>
</g>
</svg>
