<?xml version="1.0" encoding="utf-8"?>
<!-- Generator: Adobe Illustrator 26.0.2, SVG Export Plug-In . SVG Version: 6.00 Build 0)  -->
<svg version="1.1" xmlns="http://www.w3.org/2000/svg" xmlns:xlink="http://www.w3.org/1999/xlink" x="0px" y="0px"
	 viewBox="0 0 750 500" style="enable-background:new 0 0 750 500;" xml:space="preserve">
<style type="text/css">
	.st0{fill:#E1EDFA;}
	.st1{fill:none;stroke:#001E6C;stroke-linecap:round;stroke-linejoin:round;stroke-miterlimit:10;}
	.st2{fill:#FFFFFF;stroke:#001E6C;stroke-linecap:round;stroke-linejoin:round;stroke-miterlimit:10;}
	.st3{fill:#9EBEDF;stroke:#001E6C;stroke-linecap:round;stroke-linejoin:round;stroke-miterlimit:10;}
	.st4{fill:#001E6C;stroke:#001E6C;stroke-linecap:round;stroke-linejoin:round;stroke-miterlimit:10;}
	.st5{fill:#FFAA4C;stroke:#001E6C;stroke-linecap:round;stroke-linejoin:round;stroke-miterlimit:10;}
	.st6{fill:none;stroke:#001E6C;stroke-width:2;stroke-linecap:round;stroke-linejoin:round;stroke-miterlimit:10;}
	.st7{fill:#001E6C;}
	.st8{fill:#5089C6;stroke:#001E6C;stroke-linecap:round;stroke-linejoin:round;stroke-miterlimit:10;}
</style>
<g id="BACKGROUND">
</g>
<g id="OBJECTS">
	<g>
		<path class="st0" d="M101.5,195.1c18.9-10.6,39.5-19,58.1-28.8c31.9-16.8,63.4-34.6,93.7-54.1c40.6-26.1,81.4-46.5,129.4-54.7
			c53.5-9.2,109.6-4.8,160.7,13.5c0.5,0.2,0.9,0.3,1.4,0.5c40.5,14.8,77.8,39.8,104,74.4c30.5,40.2,44.5,89.4,42.7,139.6
			c-0.4,12.8-1.6,25.6-3,38.3c-15.5,133.9-189.7,146.8-261.8,142.5c-72.1-4.3-216.5-49.4-255-44.6C130,426.7,84,412,56.5,379.4
			c-32.9-38.9-29.5-98.6-4.1-140.5C64.3,219.3,82,206,101.5,195.1z"/>
		<g>
			<rect x="530.8" y="71.2" class="st1" width="108.7" height="132.6"/>
			<rect x="537.9" y="79.8" class="st1" width="94.5" height="115.3"/>
			<rect x="568.4" y="117" class="st1" width="33.5" height="40.9"/>
		</g>
		<g>
			<line class="st1" x1="274.2" y1="224.6" x2="274.2" y2="55.4"/>
			<polyline class="st1" points="52.1,318 274.2,318 274.2,232.2 			"/>
			<line class="st1" x1="505.8" y1="179.6" x2="505.8" y2="56.2"/>
			<polyline class="st1" points="283.6,62.8 283.6,318 505.8,318 505.8,185.4 			"/>
			<line class="st1" x1="283.6" y1="55.4" x2="283.6" y2="58.3"/>
		</g>
		<g>
			<rect x="130.4" y="425.4" class="st2" width="16.2" height="18.3"/>
			<rect x="78.7" y="346.7" class="st2" width="119.5" height="80.6"/>
			<rect x="82.3" y="350.1" class="st3" width="112.3" height="73.7"/>
		</g>
		<path class="st4" d="M362.2,340h-69.3c-6.5,0-12.2,4.6-13.5,11L260,443.6h97.4l18.2-86.9C377.5,348.1,370.9,340,362.2,340z"/>
		<g>
			<path class="st3" d="M573.5,245c0,0-4.5,12.3-13.9,13.9c-9.5,1.7-26.2-16.7-15.6-26.2C554.6,223.2,569.1,238.3,573.5,245z"/>
			<path class="st3" d="M588,184.8c0,0-13.9,34-8.4,50.7c5.6,16.7,40.1,29,50.2,7.2c10-21.7-12.3-52.4-20.6-59.1
				C600.8,177,590.8,179.2,588,184.8z"/>
			<path class="st3" d="M669.4,199.3c0,0-24,21.7-26.8,43.5c-2.8,21.7,13.4,29.6,30.1,26.8c16.7-2.8,25.1-45.2,20.1-64.7
				C687.8,185.3,669.4,199.3,669.4,199.3z"/>
			<g>
				<path class="st3" d="M673.9,319.7c0,0-26.8,1.1-27.9,13.9c-1.1,12.8,11.7,15.6,24.5,4.5C683.4,327,685,320.3,673.9,319.7z"/>
				<path class="st1" d="M646.4,336.7c0,0,21.1-9.7,30.6-11.3"/>
			</g>
			<g>
				<path class="st3" d="M679.9,403.6c0,0-19.7-18.2-29.5-9.9c-9.9,8.3-2.8,19.3,14.1,20.5C681.4,415.5,687.3,411.9,679.9,403.6z"/>
				<path class="st1" d="M648.5,396.2c0,0,21.7,8.2,29.6,13.7"/>
			</g>
			<g>
				<path class="st3" d="M576.1,398.3c0,0,27.1-25.1,40.7-13.7c13.6,11.4,3.9,26.6-19.5,28.3C574,414.6,565.9,409.7,576.1,398.3z"/>
				<path class="st1" d="M619.4,388c0,0-29.9,11.2-40.8,18.9"/>
			</g>
			<path class="st3" d="M607.5,346.5c0,0-2.8,13.4-12.8,18.4c-10,5-27.9-5.6-18.4-21.7C585.8,327,602.5,339.8,607.5,346.5z"/>
			<path class="st3" d="M584.1,304.7c0,0-5-11.2-24.5-3.9c-19.5,7.2-27.3,18.4-15.1,22.3C556.8,327,584.1,304.7,584.1,304.7z"/>
			<path class="st1" d="M580.4,304.1c0,0-20.7,2.2-31.9,11.7"/>
			<path class="st3" d="M639.9,170.8c0,0,3.3,7.8,10,6.1c6.7-1.7,8.4-11.7,19-8.9c10.6,2.8,19.5,15.1,19.5,9.5
				c0-5.6-13.4-20.1-28.4-20.1C644.9,157.4,640.4,163.6,639.9,170.8z"/>
			<path class="st1" d="M584.1,304.7c0,0,24-4.6,34,22.1c1,2.6,1.8,5.4,2.5,8.2"/>
			<path class="st3" d="M684.3,278.8c0,0,5-11.2,24.5-3.9c19.5,7.2,27.3,18.4,15.1,22.3C711.6,301.1,684.3,278.8,684.3,278.8z"/>
			<path class="st1" d="M688.8,279.6c0,0,20.1-1.1,29.6,10.6"/>
			<path class="st1" d="M684.3,278.8c0,0-8-1.5-16.6,2.3"/>
			<path class="st1" d="M596.9,258.8c-11.8-12-23.4-13.8-23.4-13.8s-17.2-4.5-23.9,1.6"/>
			<g>
				<line class="st1" x1="599.3" y1="197" x2="598.3" y2="192.4"/>
				<path class="st1" d="M626.5,443.6c0,0,2.5-96,0-125.2c-2.5-29.2-14.2-63.3-14.2-63.3L600.4,202"/>
				<line class="st1" x1="676" y1="217.7" x2="678.2" y2="213.1"/>
				<path class="st1" d="M632.3,443.5c0,0,0.8-87.6,4.2-112.6c3.3-25,16.7-64.2,16.7-64.2l20.5-43.8"/>
				<path class="st1" d="M646.4,336.7c0,0-5.8,50.2-9.2,106.9"/>
				<path class="st1" d="M618.1,443.5c0,0,1.7-80.1-1.7-90.9c-3.3-10.8-8.9-6.1-8.9-6.1s-15.4,1.8-21,10.8"/>
				<path class="st1" d="M621.9,341.1c4.4,24.4,0.3,102.4,0.3,102.4"/>
				<path class="st1" d="M663,283.7c-4.8,3.3-9.5,8.6-12.7,17.2c-10,26.7-8.9,142.7-8.9,142.7"/>
				<path class="st1" d="M599.8,262c5.2,6.1,10.3,14.4,14.1,25.5c13.3,38.3,18.3,137.6,15.8,155.9"/>
				<path class="st1" d="M633.7,297.9c-0.8,48.4-1.4,145.6-1.4,145.6"/>
			</g>
			<path class="st1" d="M633.8,291.8c0.5-32,1.2-63.3,1.8-80.1c1.7-43.3,4.3-40.9,4.3-40.9s3.1-9.7,20.4-8.6"/>
			<g>
				<path class="st3" d="M612.4,328.4c0,0-13.9-12.4-8.4-18.5c5.6-6.1,40.1-10.6,50.2-2.6c10,7.9-12.3,19.2-20.6,21.6
					C625.3,331.2,615.2,330.4,612.4,328.4z"/>
				<path class="st1" d="M625.3,318.2c-0.2,1.3-0.3,2.5-0.3,3.7"/>
				<path class="st1" d="M630.1,303.7c0,0-2.1,4.1-3.6,9.2"/>
			</g>
			<g>
				<path class="st3" d="M612.4,409.7c0,0-13.9-12.4-8.4-18.5c5.6-6.1,40.1-10.6,50.2-2.6c10,7.9-12.3,19.2-20.6,21.6
					C625.3,412.5,615.2,411.7,612.4,409.7z"/>
				<path class="st1" d="M630.1,385c0,0-5.1,10.2-5.1,18.2"/>
			</g>
			<g>
				<path class="st3" d="M622.8,375.3c0,0-9.5-8.4-5.7-12.6c3.8-4.2,27.3-7.2,34.1-1.8c6.8,5.4-8.3,13-14,14.7
					S624.7,376.7,622.8,375.3z"/>
				<path class="st1" d="M634.8,358.5c0,0-3.5,6.9-3.5,12.4"/>
			</g>
		</g>
		<g>
			<g>
				<path class="st2" d="M228.7,374.7c0,0-11.7,18.2-11.3,19c0.4,0.8,7.9,9.7,8.5,10.1c0.6,0.4,4.2,0.2,4.2,0.2l5.9-5
					c0,0,0-1.2-0.6-2.2c-0.6-1-2.4-1.2-2.4-1.2s3.2-7.7,3-9.7c-0.2-2-0.6-8-0.6-8L228.7,374.7z"/>
				<line class="st1" x1="233.1" y1="395.7" x2="229.1" y2="399.9"/>
			</g>
			<g>
				<path class="st2" d="M230.8,270.5c0,0,38.4,65.8,38.4,66.7c0,0.9-33.7,40.9-33.7,40.9l-6.8-3.4l14.9-40.2l-19.4-13.4
					L230.8,270.5z"/>
				<polygon class="st4" points="229.1,301.8 238.1,330.6 227.4,323.6 				"/>
				<polyline class="st1" points="260.2,331.3 243.5,334.5 252.5,328.5 				"/>
				<line class="st1" x1="230.4" y1="370" x2="239.3" y2="373.2"/>
			</g>
			<path class="st2" d="M229.9,295.2l-4.7,42.7l0.9,51.2H145l-1.4-23.5c0,0-26.3-81-26.1-83.8c0.2-2.8,43.8-24.2,43.8-24.2l36.9-1.2
				l32.6,14.1l0.2,11.5"/>
			<polygon class="st5" points="180.2,270.8 187.8,280 182.6,380.5 192.2,391.7 204.2,379.3 192.6,280.4 195.4,266.8 191,255.7 
				171.5,257.3 			"/>
			<polygon class="st2" points="159.5,223.8 164.4,248 183.2,263.9 195.6,253.6 195.1,241.4 189.7,241.4 166.3,229.7 			"/>
			<polygon class="st2" points="187.4,259.9 191.4,277.8 202.4,260.2 195.4,248.7 195.6,253.6 			"/>
			<polygon class="st2" points="164.4,248 158.3,258.8 181.8,279 183.9,261.8 			"/>
			<g>
				<path class="st2" d="M157,217.1c0,0-2.5-5.6-5.1-2.9c-2.5,2.7,0.4,10.1,3.7,12.1s5.5,1,5.5,1s5.6,9.3,6.8,10.1
					c1.2,0.8,18.7,8.8,21,9.5c2.3,0.8,10.1-1.9,11.7-4.1c1.6-2.1,0.4-23.4,0-29.6c-0.4-6.2-4.7-30.8-5.5-32.1
					c-0.8-1.4,0.8-15.8-2.9-15.8c-3.7,0-7.2,1.9-7.2,1.9s2.3-4.3-0.4-2.9c-2.7,1.4-7,4.5-22.6,10.3c-15.6,5.8-10.5,15.4-10.1,16.4
					C152.4,192,157,217.1,157,217.1z"/>
				<g>
					<path class="st1" d="M157,217.1c0,0-0.1-0.3-0.4-0.7L157,217.1z"/>
					<path class="st4" d="M195.1,180.6c-0.5-2.8,0.7-15.3-2.8-15.3c-3.7,0-7.2,1.9-7.2,1.9s2.3-4.3-0.4-2.9
						c-2.7,1.4-7,4.5-22.6,10.3c-15.6,5.8-10.5,15.4-10.1,16.4c0.4,1,5.1,26.1,5.1,26.1l3.5-1.2c0,0-2.7-8.2-1.4-9.5
						c1.4-1.4,3.9-2.9,3.9-3.7c0-0.8-3.3-8.2-1.4-10.3C163.4,190.5,188.3,182.7,195.1,180.6z"/>
				</g>
				<polyline class="st1" points="190.1,202.1 193.4,224.3 188.2,222.9 				"/>
				<path class="st6" d="M182.7,203.7c0,0-7-1-10.9,1.4"/>
				<path class="st6" d="M191.5,197.2c0,0,0.8-6.4,5.6-4.3"/>
				<path class="st1" d="M177.7,227.8c0,0,5.3,2.1,9.2,2.3"/>
				<path class="st4" d="M181.2,209.9c0,1.3-0.6,2.3-1.4,2.3s-1.4-1-1.4-2.3c0-1.3,0.6-2.3,1.4-2.3S181.2,208.6,181.2,209.9z"/>
				<path class="st4" d="M197.9,205c0,1.3-0.6,2.3-1.4,2.3s-1.4-1-1.4-2.3c0-1.3,0.6-2.3,1.4-2.3S197.9,203.7,197.9,205z"/>
			</g>
			<g>
				<g>
					<path class="st2" d="M182.4,249.2c0,0-2.7-4.7-1.9-4.9c0.8-0.2,10.5-3.1,10.3-4.7c-0.2-1.6-3.1-2.9-5.5-2.3
						c-2.3,0.6-14.2,2.9-13.8,4.7c0.4,1.8,4.1,12.3,5.5,14.8c1.4,2.5,2.9,24,2.9,24h9.9l0.4-6.2c0,0,5.1-1,5.6-2.3
						c0.6-1.4,0.2-5.5,0.2-5.5s4.5-0.8,4.5-1.8c0-1,1.4-9.7,0-10.9c-1.4-1.2-10.9-7.2-12.7-7.2C186.1,246.9,182.4,249.2,182.4,249.2
						z"/>
					<polyline class="st1" points="196,266.8 196.2,262.9 198,261.9 					"/>
					<line class="st1" x1="182.4" y1="249.2" x2="178.3" y2="251.9"/>
				</g>
				<g>
					<path class="st2" d="M156.6,283.4l21.4,36.1l1.9-38.8h9.9c0,0,6.3,40,7.7,49.8c1.4,9.9,1.2,20-0.2,22.1
						c-1.4,2.1-7.7,9.1-10,9.1c-2.3,0-9.5-3.9-10.6-5.8c-0.6-1-15.2-9.1-27.7-22c-11.8-12.2-24-30-24-30"/>
					<line class="st1" x1="178" y1="319.6" x2="175.4" y2="342.6"/>
					<line class="st1" x1="179.4" y1="286.5" x2="190" y2="286.5"/>
				</g>
			</g>
			<polygon class="st4" points="145,389.1 145,443.6 227.6,443.6 226.1,389.1 			"/>
		</g>
		<g>
			<path class="st4" d="M387.5,184.8c0,0-12.2,3.3-15.5,11.3c-3.3,8-0.9,9.6-0.2,9.4c0.7-0.2,2.3-3.3,2.3-3.3s-2.6,7.3,0.7,10.3
				c3.3,3.1,8.7,7.3,8.7,7.3s-0.7,9.4-3.5,15.3c-2.8,5.9-6.8,12.4-4.7,15c2.1,2.6,4.7-1.2,4.7-1.2s2.3,5.9,10.6,8
				c8.2,2.1,25.4,5.1,32.4,4.1c7-0.9,11.8-5.1,11.8-5.1s-2.1,4,1.6,1.6c3.8-2.3,6.1-5.4,9.9-13.9c3.8-8.5,6.1-21.8,4.2-32.2
				c-1.9-10.3-11-19-17.1-24c-6.1-4.9-18.6-9.6-29.8-8.5C392.2,180.3,387.5,184.8,387.5,184.8z"/>
			<polygon class="st5" points="446.5,277.4 449.6,316.2 433.3,346.3 426.5,332.4 			"/>
			<polygon class="st4" points="435.2,309.9 430.5,340.2 426.4,333.5 			"/>
			<polygon class="st4" points="341.5,443.6 344.8,406.2 442.9,410.2 444.6,442.9 			"/>
			<path class="st5" d="M393.1,198.1c0,0-1.5,10,0.2,11.7c1.7,1.7,10.4,5.9,10.4,5.9s-1.1-11.1-1.1-11.7c0-0.7,6.1,15,9.1,16.9
				c3,2,8.7,6.7,8.7,6.7s0.9,2.6,1.7,2.4s2.8-2.2,2.8-2.2s6.3-1.7,5.6,3.3c-0.7,5-5,11.7-7.6,12.2s-4.6,0.2-4.6,0.2
				s-3.5,10.4-3.9,13.9c-0.4,3.5-0.7,4.1-0.2,5.4s10.4,6.1,12.6,6.7c2.2,0.7,19.6,7.8,19.6,7.8l-20.6,57.8l21.3,76.3
				c0,0-31.9,7.4-62.4,4.6c-30.4-2.8-43-9.3-43-9.3l25.9-73.2l-9.3-62.8l34.3-6.3l0.7-7.8c0,0-8.5-2.4-11.3-8.5
				c-2.9-6.3-0.2-17.4,0-20.6c0.2-3.3,0.4-7.8,0-11.5S383.3,200.7,393.1,198.1z"/>
			<g>
				<path class="st1" d="M377.8,325.1c0,0,23.6,14.1,24.5,14.4"/>
				<line class="st1" x1="387.2" y1="334.2" x2="403.8" y2="345.5"/>
			</g>
			<g>
				<path class="st2" d="M423.1,268c-3.7-1.7-8.4-4.2-8.7-5.1c-0.4-1.3-0.2-2,0.2-5.4c0.4-3.5,3.9-13.9,3.9-13.9s2,0.2,4.6-0.2
					c2.6-0.4,7-7.2,7.6-12.2c0.7-5-5.6-3.3-5.6-3.3s-2,2-2.8,2.2s-1.7-2.4-1.7-2.4s-5.6-4.8-8.7-6.7c-3-2-9.1-17.6-9.1-16.9
					s1.1,11.7,1.1,11.7s-8.7-4.1-10.4-5.9c-1.7-1.7-0.2-11.7-0.2-11.7c-9.8,2.6-11.5,14.1-11.1,17.8s0.2,8.3,0,11.5
					c-0.2,3.3-2.9,14.3,0,20.6c2.8,6.1,11.3,8.5,11.3,8.5l-0.7,7.8l-9.6,1.8l-4.5,25.7l35.5,2.5L423.1,268z"/>
				<line class="st1" x1="392.7" y1="264.4" x2="392.4" y2="271.1"/>
				<path class="st1" d="M414.5,249.7c0,0-4.8,4.6-12.5,5.3"/>
				<path class="st1" d="M391.1,240.3c0,0,6.7,2.6,12.2-3"/>
				<path class="st1" d="M393.7,217.2c0,0,0.3,0.8,0,3.7c-0.3,2.9-5.5,10.6-3.9,11.4c1.6,0.8,2.9,0.5,6.1,0.7"/>
				<path class="st7" d="M390.1,221.5c0,1.4-0.7,2.5-1.5,2.5s-1.5-1.1-1.5-2.5c0-1.4,0.7-2.5,1.5-2.5S390.1,220.2,390.1,221.5z"/>
				<path class="st7" d="M404.6,223c0,1.4-0.7,2.5-1.5,2.5c-0.8,0-1.5-1.1-1.5-2.5c0-1.4,0.7-2.5,1.5-2.5
					C404,220.6,404.6,221.7,404.6,223z"/>
				<path class="st1" d="M385.8,216c0,0,3.5-2.6,6.3-1.2"/>
				<path class="st1" d="M401.3,215.5c0,0,5.2-0.7,7,3.5"/>
			</g>
			<g>
				<path class="st2" d="M358.3,270.7l-4,28.1l-12.3,25.6l-24.5-36.8c0,0-0.8-5.9-2.2-8.1c-1.4-2.2-6.1-3.4-8.9-5.3
					c-2.8-2-4.7-8.1-7-5.9c-2.2,2.2-0.8,6.1,0,7.3c0.8,1.1,7.3,6.4,7.3,6.4l-15.6,5c0,0-12.3-5.9-13.4-3.6
					c-1.1,2.2,8.9,12.9,12.9,14c3.9,1.1,19.6-1.4,19.6-1.4s17.6,43,21.5,47.8c3.9,4.7,8.9,10.6,10.1,10.3
					c1.1-0.3,25.3-25.8,25.3-25.8L358.3,270.7z"/>
				<path class="st1" d="M311.8,291.4c0,0-4.1-2.9-5.6-2.9c-1.5,0-16,2.4-16,2.4s-7.5-4.1-9-3.4"/>
			</g>
			<path class="st5" d="M353.4,342.5c6.7-6.8,13.4-14.2,13.4-14.2l-8.4-57.7l-4,28.1l-12.3,25.6L353.4,342.5z"/>
			<g>
				<path class="st2" d="M451.6,305.5c0,0,0.7-12.4,3.4-14.3c2.7-1.9,11.4-4.6,12.4-6.3c1-1.7,2.4-1,2.2,1.2
					c-0.2,2.2-2.9,5.3-3.6,5.6c-0.7,0.2-4.4,2.4-4.4,2.4s2.9,2.4,3.6,2.7c0.7,0.2,10.2,2.2,10.2,2.2s9.5-7.8,9.5-5.8
					s-6.3,13.9-7,15.3c-0.7,1.5-6.1,1.9-8.3,2.2c-2.2,0.2-12.6,1.2-12.6,1.2s-2.7,27.5-2.9,33.8c-0.2,6.3-4.4,12.2-6.6,13.6
					c-2.2,1.5-14.3-9-14.1-12.9c0.2-3.9,15.3-34.8,15.3-34.8L451.6,305.5z"/>
				<path class="st1" d="M454.6,307.6c0,0,2.3-4.8,5.7-4c3.4,0.7,13.6,1.9,13.6,1.9s4.6-6.1,6.6-6.3"/>
			</g>
		</g>
		<path class="st4" d="M599.4,340h-69.3c-6.5,0-12.2,4.6-13.5,11l-19.4,92.6h97.4l18.2-86.9C614.7,348.1,608.1,340,599.4,340z"/>
		<g>
			<path class="st2" d="M516.7,336.5l-44.4,21l-12.7,56.9c0,0-5.5,0.2-5.7,1.7c-0.2,1.5,0.2,4.5,0.2,4.5s-3.8,0.2-4.2,3.6
				c-0.4,3.4,0,7,0.6,8.7c0.6,1.7,7,9.5,8.9,9.8c1.9,0.2,4.2,0.6,4.9,0.8c0.6,0.2,108.9,0,108.9,0s4.2-0.4,5.3-1.3
				c1.1-0.8,1.3-2.8,1.3-2.8s3-2.3,3.2-3.8c0.2-1.5-1.1-10.6-1.1-12.5c0-1.9,7.6-57.3,8.1-61.1s-0.8-5.3-1.9-6.4
				c-1.1-1.1-12.7-7.9-17.8-10c-5.1-2.1-22.6-9.9-22.6-9.9L516.7,336.5z"/>
			<g>
				<path class="st5" d="M521.3,374.4c1.1-0.5,25-28.5,31.7-36.5c-3.2-1.4-6.5-2.3-6.5-2.3l-29.9,0.6l-8.8,4.5
					c2.3,7.2,9.1,25.8,10.5,29.2C520.1,374.2,520.1,375,521.3,374.4z"/>
				<g>
					<path class="st2" d="M512,273.4c0,0-8.2,9.7-8.2,13.4c0,3.6,1.6,7.6-0.2,9.7c-1.7,2.1-11.5,6.6-9.6,9c1.9,2.4,4.9,4.3,4.9,4.3
						l-0.3,5.6c0,0,3.5,13.6,5.4,14.2c1.9,0.7,8,0.5,8,0.5s7.6,30.4,9.6,30.8c1.9,0.3,25-25.4,25-25.4l-0.9-10.2
						c0,0,9-14.8,11.5-21.5c2.4-6.8-2.4-20.8-9.4-27.3c-6.9-6.4-21-7.5-26.2-6.9C516.3,270.1,512,273.4,512,273.4z"/>
					<path class="st6" d="M507,288.2c0,0,4.5-1.4,7.6,1.4"/>
					<path class="st4" d="M511.9,296.5c-0.4,1.3-1.3,2.1-1.9,1.9c-0.6-0.2-0.8-1.4-0.4-2.7c0.4-1.3,1.3-2.1,1.9-1.9
						S512.3,295.2,511.9,296.5z"/>
					<path class="st4" d="M513.2,265.2c0,0-16,2.8-12.2,5.9c3.8,3.1,24.8,8.7,29.4,10.3c4.5,1.6-7.6,4.3-5.9,5.7
						c1.7,1.4,5.2,8,5.2,8s-0.7,8.7-3,13.4c-2.3,4.7-12.9,10.9-12.9,10.9s-5.6-7.5-8.5-7.5c-3,0-7.1,0.7-6.8,3.5
						c0.3,2.8,1.6,10.3,1.7,10.9c0.2,0.7-2.1,7.6,0.3,9.2c2.4,1.6,14.9-3.5,20.5-5.9c5.6-2.4,8.2-3.6,8.5-7.1
						c0.3-3.5,5.7-19.1,5.7-19.1s3.6-2.4,6.9-1.9c3.3,0.5,3.3,7.8,0.3,10.4c-3,2.6-6.8,5.2-6.8,5.2l9.7,8.2c0,0,21.4-21.5,21.7-29.9
						c0.3-8.3-10.3-23.1-14.8-27.8C548.1,262.9,522.1,261.7,513.2,265.2z"/>
					<g>
						<path class="st2" d="M498.8,317.6c0,0,5.5-2.1,7.1-1.8c2.9,0.5,5.8,3.6,4.7,6c-0.9,2.1-2.4,4.2-4.4,5.2c-2,1-2.8,1.5-3.1,0.5
							c-0.3-1-1.2-1.9-2.2-2.1c-1-0.2-0.7,0.9-0.7,0.9S499.4,318.9,498.8,317.6z"/>
						<path class="st1" d="M500.7,320c0,0,3,0.1,6.6-1.9"/>
					</g>
				</g>
			</g>
			<g>
				<path class="st1" d="M457,420.9c0,0,8.7,1.3,12.3,9.3"/>
				<path class="st1" d="M462.6,416.6c0,0,7.2,1.9,9.5,4.9"/>
			</g>
			<g>
				<path class="st1" d="M558.1,381.2l-6.2,36.7c0,0-9.8,1.7-9.8,4.7c0,3,5.3,10.6,5.3,10.6"/>
				<line class="st1" x1="559.1" y1="374.6" x2="558.7" y2="376.9"/>
				<path class="st1" d="M570,413.5c1.1,0,2.1,0.1,3.1,0.3"/>
				<path class="st1" d="M554.4,416.4c0,0,6.1-2.3,12.5-2.8"/>
				<path class="st1" d="M570.6,419.2c0,0,7,3,9.8,12.5"/>
			</g>
			<g>
				<path class="st2" d="M573.1,443.1c0,0,0.6-4.7-5.1-12.1c-5.7-7.4-11.2-8.1-12.7-7.4c-1.5,0.6-41.8,15.3-41.8,15.3
					s-24.8-14.2-26.9-13.2c-2.1,1.1-15.5,17.6-15.5,17.6L573.1,443.1z"/>
				<line class="st1" x1="476.8" y1="443.4" x2="490.1" y2="429.3"/>
				<line class="st1" x1="484" y1="442.7" x2="496.1" y2="431.9"/>
				<line class="st1" x1="493.3" y1="443.6" x2="501.6" y2="435.5"/>
				<line class="st1" x1="502.7" y1="442.9" x2="506.1" y2="440.2"/>
			</g>
			<line class="st1" x1="481.2" y1="373.7" x2="481.9" y2="368.9"/>
			<line class="st1" x1="471" y1="443.4" x2="480.3" y2="379.9"/>
			<g>
				<path class="st2" d="M466.6,443.4c0,0-1.3-12.5-7.2-15.3c-5.9-2.8-12.7,0.4-15.3,1.1c-2.5,0.6-25.5,14.4-25.5,14.4L466.6,443.4z
					"/>
				<g>
					<path class="st2" d="M438.6,435.7c0,0-6.2-4.7-8.9-7c-2.8-2.3-4.5-2.5-10-1.9c-5.5,0.6-9.5,16.6-9.5,16.6h20.6L438.6,435.7z"/>
					<path class="st2" d="M435.6,433.4c0,0-7.6,8.5-6.8,9.1c0.8,0.6,4.9,0.4,4.9,0.4s7-5.3,7.2-6.8
						C441.1,434.7,435.6,433.4,435.6,433.4z"/>
					<path class="st2" d="M426.3,428.5l-7.6,15.1l-4.2-0.8c0,0,4.7-14.4,5.3-15.9c0.6-1.5,4-1.9,7,0"/>
					<path class="st2" d="M419.7,426.8c0,0-6.3-0.7-7.2,0.8s-2.3,15.8-2.3,15.8l4.2-0.6L419.7,426.8z"/>
					<path class="st2" d="M411.7,428.3c0,0-5,1.7-5.2,3c-0.2,1.4,0.1,11.7,0.1,11.7l3.6,0.3L411.7,428.3z"/>
					<path class="st2" d="M406.4,432.8c0,0-4.9,3.7-5.2,4.5c-0.3,0.8-2.9,3.8-1.9,4c1,0.2,4.7-2.6,4.7-2.6l2.2-0.9L406.4,432.8z"/>
				</g>
			</g>
		</g>
		<line class="st1" x1="689.8" y1="443.6" x2="33.6" y2="443.6"/>
		<g>
			<rect x="402.4" y="441.5" class="st8" width="71.6" height="2.1"/>
			<polygon class="st8" points="389.9,385.6 304.3,385.6 317.9,443.6 403.5,443.6 			"/>
			<path class="st5" d="M354.8,415.7c0,3-2.4,5.4-5.4,5.4s-5.4-2.4-5.4-5.4s2.4-5.4,5.4-5.4S354.8,412.7,354.8,415.7z"/>
		</g>
		<g>
			<path class="st5" d="M106.5,414.2c0,0-5.1-3.5-9-0.7c-3.9,2.8-4.4,16.6,0,21.4c2.5,2.8,9.2,0.5,9.2,0.5l0.5-6.7
				c0,0-4.2,4.2-6.4-0.2c-1.4-2.8-0.7-9.2,1.8-10.4c2.5-1.2,4.8,1.4,4.8,1.4L106.5,414.2z"/>
			<g>
				<path class="st1" d="M109.3,401.8c0,0,8.4-3.5,8.4-10.3c0-6.8-4.2-6.8-4.8-11.6"/>
				<path class="st1" d="M119.3,379.6c0,0-0.6,3.9,3.5,7.1c4.2,3.2,2.3,8.4,0.3,11"/>
				<path class="st1" d="M120.6,376c0,0,1-2.3,3.2-3.2"/>
			</g>
			<rect x="105.2" y="404.8" class="st5" width="31.2" height="38.8"/>
		</g>
		<g>
			<path class="st4" d="M147,112.9h-1.5v-9.5h-20.1v9.5H124c-14.7,0-26.7,11.9-26.7,26.7v2.7h76.3v-2.7
				C173.7,124.8,161.8,112.9,147,112.9z"/>
			<line class="st1" x1="135.5" y1="104.7" x2="135.5" y2="49.1"/>
		</g>
		<g>
			<path class="st4" d="M453.4,112.9H452v-9.5h-20.1v9.5h-1.5c-14.7,0-26.7,11.9-26.7,26.7v2.7h76.3v-2.7
				C480.1,124.8,468.2,112.9,453.4,112.9z"/>
			<line class="st1" x1="441.9" y1="104.7" x2="441.9" y2="49.1"/>
		</g>
		<g>
			<path class="st2" d="M355.6,149.8h-48.8c-6.1,0-11.1,5-11.1,11.1v20.6c0,6.1,5,11.1,11.1,11.1h38.4l8.8,10.8v-10.8h1.6
				c6.1,0,11.1-5,11.1-11.1v-20.6C366.7,154.8,361.7,149.8,355.6,149.8z"/>
			<g>
				<path class="st5" d="M320.1,170.9c0,1.7-1.3,3-3,3c-1.7,0-3-1.3-3-3s1.3-3,3-3C318.7,167.9,320.1,169.3,320.1,170.9z"/>
				<circle class="st5" cx="331.2" cy="170.9" r="3"/>
				<circle class="st5" cx="345.3" cy="170.9" r="3"/>
			</g>
		</g>
	</g>
</g>
</svg>
